<svg width="222" height="59" viewBox="0 0 222 59" fill="none" xmlns="http://www.w3.org/2000/svg">
<rect width="222" height="59" rx="29.5" fill="#2E70EF"/>
<path d="M50.3573 29.24C50.3573 28.6267 49.984 28.2933 49.2373 28.24H46.3973C46.184 28.24 46.0773 28.1733 46.0773 28.04C46.2373 27.2667 46.5173 26.6533 46.9173 26.2C47.3173 25.72 47.6507 25.4533 47.9173 25.4C48.664 25.2933 49.8907 25.24 51.5973 25.24C53.304 25.24 54.3707 25.2533 54.7973 25.28C55.224 25.28 55.4907 25.32 55.5973 25.4C55.704 25.5333 55.7573 25.6933 55.7573 25.88C55.7573 26.04 55.704 27.1467 55.5973 29.2C55.5173 31.2267 55.4773 33.0533 55.4773 34.68C55.4773 36.28 55.5307 37.2933 55.6373 37.72C55.744 38.12 55.7973 38.3733 55.7973 38.48C55.7973 38.9067 55.424 39.3733 54.6773 39.88C53.9307 40.36 52.7973 40.7867 51.2773 41.16C49.784 41.5333 48.1307 41.72 46.3173 41.72C43.8907 41.72 41.784 40.88 39.9973 39.2C38.6107 37.8667 37.6507 36.4133 37.1173 34.84C36.6107 33.2667 36.3573 31.0533 36.3573 28.2C36.3573 17.6133 40.2373 12.32 47.9973 12.32C49.304 12.32 50.4773 12.4667 51.5173 12.76C52.5573 13.0267 53.464 13.5733 54.2373 14.4C55.0373 15.2 55.4373 16.24 55.4373 17.52C55.4373 18.1867 55.304 18.8667 55.0373 19.56C54.5573 20.9733 53.4907 21.68 51.8373 21.68C50.9307 21.68 50.2373 21.4533 49.7573 21C49.304 20.52 49.0773 19.8667 49.0773 19.04C49.0773 18.72 49.2507 18.52 49.5973 18.44C50.104 18.1467 50.3573 17.6533 50.3573 16.96C50.3573 16.24 50.0907 15.6933 49.5573 15.32C49.024 14.92 48.464 14.72 47.8773 14.72C46.5973 14.72 45.5173 15.1867 44.6373 16.12C43.7573 17.0267 43.1173 18.2267 42.7173 19.72C42.0507 22.3867 41.7173 25.1067 41.7173 27.88C41.7173 32.4133 42.824 35.4267 45.0373 36.92C45.864 37.5067 46.7307 37.8 47.6373 37.8C49.3173 37.8 50.2107 37.4933 50.3173 36.88C50.3973 36.0533 50.4373 34.7733 50.4373 33.04L50.3573 29.24ZM61.7617 30.84L61.8017 31.84C61.8017 32 61.9084 32.08 62.1217 32.08C62.9751 32 63.7217 31.7867 64.3617 31.44C65.0017 31.0667 65.4817 30.6533 65.8017 30.2C66.4417 29.2133 66.7884 28.36 66.8417 27.64L66.8817 27.16C66.8817 25.72 66.3084 25 65.1617 25C64.3084 25 63.6151 25.3733 63.0817 26.12C62.2017 27.2933 61.7617 28.8667 61.7617 30.84ZM70.4817 36.16C70.4817 37.1733 70.2684 38.0667 69.8417 38.84C69.4417 39.5867 68.9751 40.1467 68.4417 40.52C67.9351 40.8667 67.3351 41.1467 66.6417 41.36C65.7617 41.6267 64.9217 41.76 64.1217 41.76C61.8817 41.76 60.2284 40.92 59.1617 39.24C58.0951 37.56 57.5617 35.4267 57.5617 32.84C57.5617 30.2267 58.2151 27.9067 59.5217 25.88C60.8551 23.8533 62.8417 22.84 65.4817 22.84C67.8817 22.84 69.5084 23.68 70.3617 25.36C70.7084 26 70.8817 26.6133 70.8817 27.2C70.8817 27.76 70.8551 28.2133 70.8017 28.56C70.7484 28.88 70.5617 29.3733 70.2417 30.04C69.9217 30.7067 69.4951 31.3067 68.9617 31.84C68.4284 32.3733 67.5884 32.88 66.4417 33.36C65.2951 33.84 63.9484 34.16 62.4017 34.32C62.1884 34.32 62.0817 34.4133 62.0817 34.6C62.0817 34.84 62.1617 35.2 62.3217 35.68C62.5084 36.1333 62.7084 36.52 62.9217 36.84C63.5084 37.5867 64.3751 37.96 65.5217 37.96C66.6684 37.96 67.6417 37.5867 68.4417 36.84C68.8684 36.44 69.2151 35.9467 69.4817 35.36C69.5884 35.1467 69.7217 35.04 69.8817 35.04C70.0684 35.04 70.2151 35.1867 70.3217 35.48C70.4284 35.7733 70.4817 36 70.4817 36.16ZM72.0883 25.4L72.2083 23.8C72.2349 23.56 72.4216 23.44 72.7683 23.44H74.1683L74.0083 20.24V20.08C74.0083 19.4667 74.4749 18.88 75.4083 18.32C76.3416 17.76 77.1949 17.48 77.9683 17.48C78.2083 17.48 78.3283 17.5867 78.3283 17.8V17.84C78.2216 18.56 78.1149 20.4133 78.0083 23.4C79.1816 23.4 79.9283 23.3733 80.2483 23.32C80.5683 23.2667 80.7416 23.24 80.7683 23.24C80.9549 23.24 81.0483 23.4 81.0483 23.72C81.0483 24.04 80.9016 24.4533 80.6083 24.96C80.3149 25.44 79.9949 25.6933 79.6483 25.72H77.9683C77.9416 26.6267 77.9283 28.16 77.9283 30.32C77.9283 32.4533 77.9416 34.2133 77.9683 35.6C78.0216 36.9867 78.0749 38.04 78.1283 38.76C78.1816 39.4533 78.2349 40.0133 78.2883 40.44C78.3683 40.8667 78.4216 41.1733 78.4483 41.36C78.5016 41.5467 78.5283 41.6667 78.5283 41.72C78.5283 41.9867 78.3549 42.1333 78.0083 42.16C76.9683 42.16 75.9283 42.0133 74.8883 41.72C73.8749 41.4267 73.3683 40.92 73.3683 40.2C73.9283 35.72 74.2083 30.9067 74.2083 25.76C73.4883 25.76 72.9416 25.7867 72.5683 25.84H72.5283C72.2883 25.84 72.1416 25.6933 72.0883 25.4ZM101.541 18.84L101.701 17.6C101.701 16.3733 101.221 15.5867 100.261 15.24C99.5144 15 98.9411 14.88 98.5411 14.88H98.5011C97.7011 14.88 97.0078 15.0133 96.4211 15.28C95.8344 15.52 95.4078 15.8267 95.1411 16.2C94.5811 16.9733 94.2611 17.7867 94.1811 18.64C94.1811 19.6533 94.6344 20.5333 95.5411 21.28C96.4478 22 97.5411 22.64 98.8211 23.2C100.128 23.7333 101.421 24.32 102.701 24.96C104.008 25.6 105.114 26.52 106.021 27.72C106.928 28.92 107.381 30.36 107.381 32.04C107.381 35.32 106.341 37.7733 104.261 39.4C102.208 41.0267 99.8611 41.84 97.2211 41.84C94.6078 41.84 92.4344 41.2533 90.7011 40.08C88.9944 38.88 88.1411 37.28 88.1411 35.28V35.24C88.1411 34.2533 88.2878 33.4 88.5811 32.68C88.9011 31.9333 89.2744 31.3867 89.7011 31.04C90.5811 30.32 91.3811 29.9333 92.1011 29.88L92.5811 29.84C93.3278 29.84 94.0078 30.0267 94.6211 30.4C95.2344 30.7467 95.5411 31.24 95.5411 31.88C95.5411 32.2 95.3678 32.4667 95.0211 32.68C94.6744 32.8933 94.3678 33.2133 94.1011 33.64C93.8611 34.0667 93.7278 34.4267 93.7011 34.72L93.6211 35.16C93.6211 36.7867 94.3678 37.8667 95.8611 38.4C96.3944 38.5867 96.8211 38.68 97.1411 38.68C98.6078 38.68 99.7811 38.24 100.661 37.36C101.568 36.48 102.021 35.36 102.021 34C102.021 32.3733 101.328 31.0533 99.9411 30.04C98.9011 29.2933 97.7678 28.6667 96.5411 28.16C95.3411 27.6533 94.5278 27.2933 94.1011 27.08C93.6744 26.8667 93.2211 26.6133 92.7411 26.32C92.2611 26.0267 91.7278 25.6133 91.1411 25.08C89.8611 23.96 89.2211 22.4533 89.2211 20.56C89.2211 18.64 89.7411 17.0267 90.7811 15.72C92.6478 13.3467 95.4478 12.16 99.1811 12.16C101.154 12.16 102.821 12.5467 104.181 13.32C105.541 14.0667 106.221 15.1067 106.221 16.44C106.221 17.4 105.941 18.2 105.381 18.84C104.848 19.48 104.154 19.8 103.301 19.8C102.901 19.8 102.501 19.72 102.101 19.56C101.728 19.4 101.541 19.16 101.541 18.84ZM108.612 25.4L108.732 23.8C108.758 23.56 108.945 23.44 109.292 23.44H110.692L110.532 20.24V20.08C110.532 19.4667 110.998 18.88 111.932 18.32C112.865 17.76 113.718 17.48 114.492 17.48C114.732 17.48 114.852 17.5867 114.852 17.8V17.84C114.745 18.56 114.638 20.4133 114.532 23.4C115.705 23.4 116.452 23.3733 116.772 23.32C117.092 23.2667 117.265 23.24 117.292 23.24C117.478 23.24 117.572 23.4 117.572 23.72C117.572 24.04 117.425 24.4533 117.132 24.96C116.838 25.44 116.518 25.6933 116.172 25.72H114.492C114.465 26.6267 114.452 28.16 114.452 30.32C114.452 32.4533 114.465 34.2133 114.492 35.6C114.545 36.9867 114.598 38.04 114.652 38.76C114.705 39.4533 114.758 40.0133 114.812 40.44C114.892 40.8667 114.945 41.1733 114.972 41.36C115.025 41.5467 115.052 41.6667 115.052 41.72C115.052 41.9867 114.878 42.1333 114.532 42.16C113.492 42.16 112.452 42.0133 111.412 41.72C110.398 41.4267 109.892 40.92 109.892 40.2C110.452 35.72 110.732 30.9067 110.732 25.76C110.012 25.76 109.465 25.7867 109.092 25.84H109.052C108.812 25.84 108.665 25.6933 108.612 25.4ZM131.517 29L131.437 34.12C131.437 37.6667 131.824 39.8 132.597 40.52C132.704 40.6267 132.757 40.7467 132.757 40.88C132.757 41.28 131.89 41.48 130.157 41.48C128.45 41.48 127.544 40.9733 127.437 39.96C127.41 39.72 127.397 39.2267 127.397 38.48L127.557 32.08C127.557 31.8933 127.45 31.8 127.237 31.8C125.957 31.8 124.757 32.16 123.637 32.88C122.517 33.6 121.957 34.52 121.957 35.64C121.957 36.2267 122.117 36.72 122.437 37.12C122.757 37.52 123.144 37.72 123.597 37.72C124.077 37.72 124.464 37.6267 124.757 37.44C125.077 37.2533 125.264 37.1467 125.317 37.12C125.77 37.1733 125.997 37.6533 125.997 38.56C125.997 39.44 125.584 40.16 124.757 40.72C123.93 41.2533 123.064 41.52 122.157 41.52C121.25 41.52 120.464 41.36 119.797 41.04C119.157 40.72 118.69 40.36 118.397 39.96C118.104 39.56 117.864 39.1067 117.677 38.6C117.49 37.9867 117.397 37.4533 117.397 37C117.397 35.1333 117.984 33.64 119.157 32.52C120.33 31.4 121.837 30.6 123.677 30.12C126.104 29.64 127.37 29.2 127.477 28.8C127.557 28.5067 127.597 28.0133 127.597 27.32C127.597 25.9067 126.877 25.2 125.437 25.2C124.824 25.2 124.277 25.4 123.797 25.8C123.317 26.1733 123.077 26.6533 123.077 27.24L123.317 28.2C123.264 28.6533 122.784 28.92 121.877 29L121.437 29.04C120.637 29.04 119.997 28.84 119.517 28.44C119.064 28.04 118.837 27.5067 118.837 26.84C118.837 26.4133 118.97 25.9467 119.237 25.44C119.53 24.9067 119.89 24.48 120.317 24.16C120.744 23.84 121.397 23.56 122.277 23.32C123.184 23.0533 124.05 22.92 124.877 22.92C125.704 22.92 126.344 22.9467 126.797 23C127.25 23.0533 127.864 23.1867 128.637 23.4C129.437 23.5867 130.09 23.96 130.597 24.52C131.13 25.08 131.41 25.68 131.437 26.32C131.49 26.9333 131.517 27.8267 131.517 29ZM146.138 30.28L146.298 31.68C146.298 32.1867 145.818 32.44 144.858 32.44C142.912 32.44 141.938 31.7067 141.938 30.24C141.938 29.8933 142.032 29.4133 142.218 28.8C142.405 28.1867 142.498 27.6533 142.498 27.2C142.498 26.7467 142.365 26.36 142.098 26.04C141.832 25.6933 141.445 25.52 140.938 25.52C140.432 25.52 139.992 25.7067 139.618 26.08C139.272 26.4267 139.058 26.7867 138.978 27.16L138.818 27.72C138.658 28.5467 138.578 29.9333 138.578 31.88C138.578 33.8 138.605 35.32 138.658 36.44C138.712 37.5333 138.765 38.2933 138.818 38.72C138.872 39.12 138.898 39.36 138.898 39.44C138.898 40.1067 138.485 40.64 137.658 41.04C136.832 41.4667 136.005 41.68 135.178 41.68C134.352 41.68 133.938 41.5067 133.938 41.16L134.138 39.92C134.512 37.6 134.698 34.5733 134.698 30.84C134.698 27.1067 134.565 24.5733 134.298 23.24C134.298 22.92 134.578 22.76 135.138 22.76C136.578 22.76 137.538 23.2533 138.018 24.24C138.045 24.3467 138.085 24.4 138.138 24.4C138.218 24.4 138.405 24.28 138.698 24.04C139.578 23.32 140.618 22.96 141.818 22.96C142.565 22.96 143.312 23.1067 144.058 23.4C145.578 24.0133 146.338 25.2933 146.338 27.24L146.138 30.28ZM147.557 25.4L147.677 23.8C147.704 23.56 147.89 23.44 148.237 23.44H149.637L149.477 20.24V20.08C149.477 19.4667 149.944 18.88 150.877 18.32C151.81 17.76 152.664 17.48 153.437 17.48C153.677 17.48 153.797 17.5867 153.797 17.8V17.84C153.69 18.56 153.584 20.4133 153.477 23.4C154.65 23.4 155.397 23.3733 155.717 23.32C156.037 23.2667 156.21 23.24 156.237 23.24C156.424 23.24 156.517 23.4 156.517 23.72C156.517 24.04 156.37 24.4533 156.077 24.96C155.784 25.44 155.464 25.6933 155.117 25.72H153.437C153.41 26.6267 153.397 28.16 153.397 30.32C153.397 32.4533 153.41 34.2133 153.437 35.6C153.49 36.9867 153.544 38.04 153.597 38.76C153.65 39.4533 153.704 40.0133 153.757 40.44C153.837 40.8667 153.89 41.1733 153.917 41.36C153.97 41.5467 153.997 41.6667 153.997 41.72C153.997 41.9867 153.824 42.1333 153.477 42.16C152.437 42.16 151.397 42.0133 150.357 41.72C149.344 41.4267 148.837 40.92 148.837 40.2C149.397 35.72 149.677 30.9067 149.677 25.76C148.957 25.76 148.41 25.7867 148.037 25.84H147.997C147.757 25.84 147.61 25.6933 147.557 25.4ZM160.512 30.84L160.552 31.84C160.552 32 160.658 32.08 160.872 32.08C161.725 32 162.472 31.7867 163.112 31.44C163.752 31.0667 164.232 30.6533 164.552 30.2C165.192 29.2133 165.538 28.36 165.592 27.64L165.632 27.16C165.632 25.72 165.058 25 163.912 25C163.058 25 162.365 25.3733 161.832 26.12C160.952 27.2933 160.512 28.8667 160.512 30.84ZM169.232 36.16C169.232 37.1733 169.018 38.0667 168.592 38.84C168.192 39.5867 167.725 40.1467 167.192 40.52C166.685 40.8667 166.085 41.1467 165.392 41.36C164.512 41.6267 163.672 41.76 162.872 41.76C160.632 41.76 158.978 40.92 157.912 39.24C156.845 37.56 156.312 35.4267 156.312 32.84C156.312 30.2267 156.965 27.9067 158.272 25.88C159.605 23.8533 161.592 22.84 164.232 22.84C166.632 22.84 168.258 23.68 169.112 25.36C169.458 26 169.632 26.6133 169.632 27.2C169.632 27.76 169.605 28.2133 169.552 28.56C169.498 28.88 169.312 29.3733 168.992 30.04C168.672 30.7067 168.245 31.3067 167.712 31.84C167.178 32.3733 166.338 32.88 165.192 33.36C164.045 33.84 162.698 34.16 161.152 34.32C160.938 34.32 160.832 34.4133 160.832 34.6C160.832 34.84 160.912 35.2 161.072 35.68C161.258 36.1333 161.458 36.52 161.672 36.84C162.258 37.5867 163.125 37.96 164.272 37.96C165.418 37.96 166.392 37.5867 167.192 36.84C167.618 36.44 167.965 35.9467 168.232 35.36C168.338 35.1467 168.472 35.04 168.632 35.04C168.818 35.04 168.965 35.1867 169.072 35.48C169.178 35.7733 169.232 36 169.232 36.16ZM179.438 23.04C179.918 23.04 180.345 23.1067 180.718 23.24C181.118 23.3467 181.332 23.4 181.358 23.4L181.598 23.2L181.438 18.84C181.385 18.0933 181.225 17.4533 180.958 16.92C180.692 16.3867 180.452 16.04 180.238 15.88L179.878 15.68C179.718 15.5733 179.638 15.4533 179.638 15.32C179.638 14.92 180.252 14.4533 181.478 13.92C182.732 13.3867 183.705 13.12 184.398 13.12C185.092 13.12 185.465 13.2667 185.518 13.56C185.652 14.4667 185.718 16.2 185.718 18.76C185.718 21.2933 185.652 23.7867 185.518 26.24C185.412 28.6933 185.358 31.48 185.358 34.6C185.358 37.6933 185.558 39.64 185.958 40.44C186.065 40.6267 186.118 40.8 186.118 40.96C186.118 41.36 185.545 41.56 184.398 41.56C182.212 41.56 181.118 41.04 181.118 40C181.065 39.5733 181.038 38.92 181.038 38.04C181.038 37.1333 181.118 35.4667 181.278 33.04C181.465 30.5867 181.558 28.7067 181.558 27.4C181.558 26.0667 180.892 25.4 179.558 25.4C178.252 25.4 177.252 26.1733 176.558 27.72C175.865 29.2667 175.518 30.8133 175.518 32.36C175.518 35.64 176.345 37.28 177.998 37.28C178.238 37.28 178.465 37.24 178.678 37.16C178.918 37.0533 179.065 37 179.118 37C179.332 37 179.492 37.1333 179.598 37.4C179.732 37.6667 179.798 37.9333 179.798 38.2C179.798 39.1067 179.438 39.88 178.718 40.52C177.998 41.1333 177.118 41.44 176.078 41.44C174.478 41.44 173.265 40.7467 172.438 39.36C171.638 37.9467 171.238 36.2 171.238 34.12C171.238 31.48 171.865 29.0267 173.118 26.76C173.758 25.64 174.625 24.7467 175.718 24.08C176.812 23.3867 178.052 23.04 179.438 23.04Z" fill="#F9F9F9"/>
<path d="M50.3573 29.24H49.3573V29.2505L49.3576 29.261L50.3573 29.24ZM49.2373 28.24L49.3086 27.2425L49.273 27.24H49.2373V28.24ZM46.0773 28.04L45.0981 27.8374L45.0773 27.9376V28.04H46.0773ZM46.9173 26.2L47.6672 26.8616L47.6765 26.851L47.6856 26.8402L46.9173 26.2ZM47.9173 25.4L47.7759 24.41L47.7484 24.414L47.7212 24.4194L47.9173 25.4ZM54.7973 25.28L54.735 26.2781L54.7661 26.28H54.7973V25.28ZM55.5973 25.4L56.3782 24.7753L56.2989 24.6762L56.1973 24.6L55.5973 25.4ZM55.5973 29.2L54.5986 29.1481L54.5981 29.1606L55.5973 29.2ZM55.6373 37.72L54.6672 37.9625L54.6691 37.9701L54.6711 37.9777L55.6373 37.72ZM54.6773 39.88L55.2181 40.7212L55.2286 40.7145L55.2388 40.7075L54.6773 39.88ZM51.2773 41.16L51.0388 40.1889L51.0348 40.1899L51.2773 41.16ZM39.9973 39.2L39.3042 39.9209L39.3123 39.9285L39.9973 39.2ZM37.1173 34.84L36.1655 35.1465L36.1678 35.1538L36.1703 35.161L37.1173 34.84ZM51.5173 12.76L51.2459 13.7224L51.2574 13.7257L51.269 13.7287L51.5173 12.76ZM54.2373 14.4L53.5071 15.0832L53.5185 15.0953L53.5302 15.1071L54.2373 14.4ZM55.0373 19.56L54.104 19.201L54.0969 19.2196L54.0905 19.2384L55.0373 19.56ZM49.7573 21L49.0303 21.6866L49.0499 21.7074L49.0707 21.727L49.7573 21ZM49.5973 18.44L49.8222 19.4144L49.9685 19.3806L50.0984 19.3054L49.5973 18.44ZM49.5573 15.32L48.9573 16.12L48.9705 16.1298L48.9839 16.1392L49.5573 15.32ZM44.6373 16.12L45.3549 16.8165L45.36 16.8113L45.3649 16.806L44.6373 16.12ZM42.7173 19.72L41.7514 19.4613L41.7492 19.4693L41.7472 19.4775L42.7173 19.72ZM45.0373 36.92L45.6161 36.1045L45.6064 36.0976L45.5966 36.091L45.0373 36.92ZM50.3173 36.88L51.3026 37.0513L51.309 37.014L51.3127 36.9763L50.3173 36.88ZM50.4373 33.04H51.4373V33.0295L51.4371 33.019L50.4373 33.04ZM51.3573 29.24C51.3573 28.718 51.1894 28.1823 50.7434 27.7841C50.3277 27.4129 49.7981 27.2775 49.3086 27.2425L49.1661 29.2375C49.2875 29.2461 49.3617 29.2642 49.401 29.2778C49.4383 29.2906 49.4333 29.2956 49.4113 29.2759C49.3862 29.2535 49.3667 29.2238 49.3571 29.1994C49.3493 29.1796 49.3573 29.1871 49.3573 29.24H51.3573ZM49.2373 27.24H46.3973V29.24H49.2373V27.24ZM46.3973 27.24C46.3625 27.24 46.5061 27.2287 46.6873 27.342C46.7924 27.4077 46.9018 27.5109 46.9797 27.6569C47.0562 27.8003 47.0773 27.9382 47.0773 28.04H45.0773C45.0773 28.4265 45.2611 28.8091 45.6273 29.038C45.9153 29.2179 46.2189 29.24 46.3973 29.24V27.24ZM47.0566 28.2426C47.1919 27.5889 47.4123 27.1505 47.6672 26.8616L46.1675 25.5384C45.6224 26.1562 45.2828 26.9445 45.0981 27.8374L47.0566 28.2426ZM47.6856 26.8402C47.8604 26.6304 47.9958 26.4978 48.092 26.4209C48.198 26.3361 48.2013 26.363 48.1135 26.3806L47.7212 24.4194C47.3667 24.4903 47.07 24.6772 46.8426 24.8591C46.6055 25.0488 46.3743 25.2896 46.1491 25.5598L47.6856 26.8402ZM48.0588 26.3899C48.7292 26.2942 49.8941 26.24 51.5973 26.24V24.24C49.8872 24.24 48.5988 24.2925 47.7759 24.41L48.0588 26.3899ZM51.5973 26.24C53.3156 26.24 54.3465 26.2538 54.735 26.2781L54.8597 24.2819C54.3948 24.2529 53.2924 24.24 51.5973 24.24V26.24ZM54.7973 26.28C54.986 26.28 55.1045 26.2893 55.169 26.2989C55.2005 26.3037 55.2012 26.3059 55.1813 26.2995C55.1704 26.296 55.1484 26.2883 55.1191 26.2744C55.0902 26.2606 55.0469 26.2372 54.9973 26.2L56.1973 24.6C55.9336 24.4022 55.6276 24.3454 55.4657 24.3211C55.2635 24.2907 55.0353 24.28 54.7973 24.28V26.28ZM54.8165 26.0247C54.797 26.0004 54.7798 25.9696 54.7687 25.9362C54.7579 25.904 54.7573 25.8828 54.7573 25.88H56.7573C56.7573 25.4888 56.6402 25.1028 56.3782 24.7753L54.8165 26.0247ZM54.7573 25.88C54.7573 25.8783 54.7573 25.8828 54.757 25.8971C54.7567 25.9103 54.7562 25.928 54.7554 25.9508C54.7539 25.9964 54.7515 26.0576 54.7482 26.1354C54.7417 26.2908 54.7318 26.506 54.7185 26.7819C54.6919 27.3333 54.652 28.1218 54.5987 29.1481L56.596 29.2519C56.7014 27.2235 56.7573 26.0742 56.7573 25.88H54.7573ZM54.5981 29.1606C54.5177 31.1973 54.4773 33.0374 54.4773 34.68H56.4773C56.4773 33.0692 56.517 31.256 56.5966 29.2394L54.5981 29.1606ZM54.4773 34.68C54.4773 35.4888 54.4908 36.1614 54.5187 36.6926C54.5456 37.2023 54.5884 37.6472 54.6672 37.9625L56.6075 37.4775C56.5797 37.3661 56.5425 37.0911 56.516 36.5874C56.4906 36.1052 56.4773 35.4712 56.4773 34.68H54.4773ZM54.6711 37.9777C54.7222 38.1694 54.7573 38.3137 54.7788 38.416C54.7896 38.4671 54.7954 38.5003 54.7981 38.519C54.8019 38.5443 54.7973 38.5247 54.7973 38.48H56.7973C56.7973 38.3115 56.7624 38.1298 56.7359 38.004C56.7041 37.8529 56.6591 37.6706 56.6036 37.4623L54.6711 37.9777ZM54.7973 38.48C54.7973 38.3906 54.8372 38.3994 54.7365 38.5253C54.6356 38.6514 54.444 38.8298 54.1158 39.0525L55.2388 40.7075C55.6573 40.4235 56.0258 40.1152 56.2982 39.7747C56.5708 39.4339 56.7973 38.9961 56.7973 38.48H54.7973ZM54.1366 39.0388C53.5279 39.4301 52.5203 39.825 51.0388 40.1889L51.5159 42.1311C53.0744 41.7484 54.3335 41.2899 55.2181 40.7212L54.1366 39.0388ZM51.0348 40.1899C49.6334 40.5402 48.063 40.72 46.3173 40.72V42.72C48.1984 42.72 49.9346 42.5265 51.5199 42.1301L51.0348 40.1899ZM46.3173 40.72C44.1482 40.72 42.2858 39.9792 40.6824 38.4715L39.3123 39.9285C41.2823 41.7808 43.6331 42.72 46.3173 42.72V40.72ZM40.6905 38.4792C39.4009 37.2392 38.5388 35.9183 38.0644 34.519L36.1703 35.161C36.7626 36.9084 37.8204 38.4941 39.3042 39.9208L40.6905 38.4792ZM38.0692 34.5335C37.6094 33.1057 37.3573 31.0132 37.3573 28.2H35.3573C35.3573 31.0935 35.6119 33.4276 36.1655 35.1465L38.0692 34.5335ZM37.3573 28.2C37.3573 22.9993 38.3156 19.2799 40.0739 16.8812C41.7897 14.5404 44.3701 13.32 47.9973 13.32V11.32C43.8646 11.32 40.625 12.7463 38.4608 15.6988C36.3391 18.5934 35.3573 22.814 35.3573 28.2H37.3573ZM47.9973 13.32C49.2307 13.32 50.3104 13.4586 51.2459 13.7224L51.7888 11.7975C50.6443 11.4747 49.3773 11.32 47.9973 11.32V13.32ZM51.269 13.7287C52.1142 13.9454 52.8565 14.3877 53.5071 15.0832L54.9676 13.7168C54.0715 12.759 53.0005 12.1079 51.7657 11.7913L51.269 13.7287ZM53.5302 15.1071C54.1175 15.6943 54.4373 16.4672 54.4373 17.52H56.4373C56.4373 16.0128 55.9572 14.7057 54.9445 13.6929L53.5302 15.1071ZM54.4373 17.52C54.4373 18.0507 54.3316 18.6092 54.104 19.201L55.9707 19.919C56.2764 19.1241 56.4373 18.3226 56.4373 17.52H54.4373ZM54.0905 19.2384C53.9093 19.7718 53.6441 20.105 53.3251 20.3163C52.9972 20.5336 52.5244 20.68 51.8373 20.68V22.68C52.8036 22.68 53.6908 22.4731 54.4296 21.9836C55.1772 21.4884 55.6854 20.7616 55.9842 19.8816L54.0905 19.2384ZM51.8373 20.68C51.0894 20.68 50.6784 20.4943 50.444 20.273L49.0707 21.727C49.7963 22.4123 50.7719 22.68 51.8373 22.68V20.68ZM50.4844 20.3134C50.2477 20.0628 50.0773 19.6787 50.0773 19.04H48.0773C48.0773 20.0546 48.3603 20.9772 49.0303 21.6866L50.4844 20.3134ZM50.0773 19.04C50.0773 19.068 50.0653 19.187 49.963 19.3049C49.8704 19.4119 49.7851 19.423 49.8222 19.4144L49.3725 17.4656C49.0629 17.537 48.7177 17.6881 48.4517 17.9951C48.1761 18.313 48.0773 18.692 48.0773 19.04H50.0773ZM50.0984 19.3054C50.9758 18.7974 51.3573 17.9322 51.3573 16.96H49.3573C49.3573 17.3744 49.2322 17.4959 49.0963 17.5746L50.0984 19.3054ZM51.3573 16.96C51.3573 15.954 50.9629 15.0832 50.1308 14.5008L48.9839 16.1392C49.2184 16.3034 49.3573 16.526 49.3573 16.96H51.3573ZM50.1573 14.52C49.4756 14.0087 48.7093 13.72 47.8773 13.72V15.72C48.2187 15.72 48.5724 15.8313 48.9573 16.12L50.1573 14.52ZM47.8773 13.72C46.3212 13.72 44.9782 14.3008 43.9098 15.434L45.3649 16.806C46.0565 16.0726 46.8734 15.72 47.8773 15.72V13.72ZM43.9198 15.4235C42.8972 16.4771 42.1857 17.8398 41.7514 19.4613L43.6833 19.9787C44.049 18.6136 44.6175 17.5763 45.3549 16.8165L43.9198 15.4235ZM41.7472 19.4775C41.0605 22.2242 40.7173 25.0256 40.7173 27.88H42.7173C42.7173 25.1877 43.0408 22.5492 43.6875 19.9625L41.7472 19.4775ZM40.7173 27.88C40.7173 32.5135 41.8406 35.9695 44.478 37.749L45.5966 36.091C43.8074 34.8839 42.7173 32.3131 42.7173 27.88H40.7173ZM44.4586 37.7355C45.4335 38.4274 46.4991 38.8 47.6373 38.8V36.8C46.9622 36.8 46.2945 36.5859 45.6161 36.1045L44.4586 37.7355ZM47.6373 38.8C48.5158 38.8 49.2895 38.7227 49.892 38.5158C50.4889 38.3109 51.158 37.8825 51.3026 37.0513L49.3321 36.7087C49.37 36.4908 49.5392 36.5224 49.2427 36.6242C48.9518 36.724 48.4389 36.8 47.6373 36.8V38.8ZM51.3127 36.9763C51.3976 36.099 51.4373 34.7788 51.4373 33.04H49.4373C49.4373 34.7679 49.3971 36.0076 49.322 36.7837L51.3127 36.9763ZM51.4371 33.019L51.3571 29.219L49.3576 29.261L49.4376 33.061L51.4371 33.019ZM61.7617 30.84H60.7617V30.86L60.7625 30.88L61.7617 30.84ZM61.8017 31.84H62.8017V31.82L62.8009 31.8L61.8017 31.84ZM62.1217 32.08V33.08H62.1685L62.2151 33.0756L62.1217 32.08ZM64.3617 31.44L64.838 32.3193L64.8519 32.3118L64.8656 32.3038L64.3617 31.44ZM65.8017 30.2L66.6187 30.7767L66.63 30.7607L66.6407 30.7442L65.8017 30.2ZM66.8417 27.64L65.8451 27.5569L65.8445 27.5661L66.8417 27.64ZM66.8817 27.16L67.8783 27.243L67.8817 27.2016V27.16H66.8817ZM63.0817 26.12L63.8817 26.72L63.8887 26.7107L63.8955 26.7012L63.0817 26.12ZM69.8417 38.84L68.9661 38.3569L68.9602 38.3678L69.8417 38.84ZM68.4417 40.52L69.0064 41.3454L69.0152 41.3392L68.4417 40.52ZM66.6417 41.36L66.9317 42.317L66.9358 42.3158L66.6417 41.36ZM59.1617 39.24L60.0059 38.704L60.0059 38.704L59.1617 39.24ZM59.5217 25.88L58.6863 25.3304L58.6813 25.3381L59.5217 25.88ZM70.3617 25.36L69.4701 25.8129L69.4761 25.8247L69.4824 25.8363L70.3617 25.36ZM70.8017 28.56L71.7882 28.7244L71.7901 28.7121L70.8017 28.56ZM68.9617 31.84L68.2546 31.1329L68.2546 31.1329L68.9617 31.84ZM66.4417 33.36L66.0556 32.4376L66.0556 32.4376L66.4417 33.36ZM62.4017 34.32V35.32H62.4533L62.5046 35.3147L62.4017 34.32ZM62.3217 35.68L61.373 35.9962L61.3839 36.0289L61.397 36.0607L62.3217 35.68ZM62.9217 36.84L62.0897 37.3947L62.1113 37.4272L62.1354 37.4578L62.9217 36.84ZM68.4417 36.84L69.124 37.5711L69.1257 37.5695L68.4417 36.84ZM69.4817 35.36L68.5873 34.9128L68.579 34.9293L68.5714 34.9462L69.4817 35.36ZM70.3217 35.48L71.2615 35.1383L71.2615 35.1383L70.3217 35.48ZM60.7625 30.88L60.8025 31.88L62.8009 31.8L62.7609 30.8L60.7625 30.88ZM60.8017 31.84C60.8017 32.164 60.9249 32.5524 61.2817 32.82C61.5844 33.047 61.9189 33.08 62.1217 33.08V31.08C62.1276 31.08 62.1657 31.0802 62.2243 31.0949C62.2838 31.1098 62.3797 31.1435 62.4817 31.22C62.5894 31.3007 62.6785 31.4105 62.7355 31.5389C62.79 31.6615 62.8017 31.77 62.8017 31.84H60.8017ZM62.2151 33.0756C63.1791 32.9853 64.0604 32.7405 64.838 32.3193L63.8854 30.5607C63.383 30.8328 62.771 31.0147 62.0284 31.0844L62.2151 33.0756ZM64.8656 32.3038C65.5899 31.8813 66.1933 31.3793 66.6187 30.7767L64.9848 29.6233C64.7701 29.9274 64.4135 30.2521 63.8578 30.5762L64.8656 32.3038ZM66.6407 30.7442C67.3208 29.6956 67.7678 28.6754 67.839 27.7139L65.8445 27.5661C65.809 28.0446 65.5626 28.7311 64.9628 29.6558L66.6407 30.7442ZM67.8383 27.723L67.8783 27.243L65.8852 27.077L65.8452 27.557L67.8383 27.723ZM67.8817 27.16C67.8817 26.334 67.7217 25.5295 67.234 24.9171C66.7117 24.2611 65.9574 24 65.1617 24V26C65.5127 26 65.6184 26.0989 65.6694 26.1629C65.7551 26.2705 65.8817 26.546 65.8817 27.16H67.8817ZM65.1617 24C63.958 24 62.9725 24.5525 62.268 25.5388L63.8955 26.7012C64.2576 26.1942 64.6588 26 65.1617 26V24ZM62.2817 25.52C61.2336 26.9175 60.7617 28.7243 60.7617 30.84H62.7617C62.7617 29.009 63.1698 27.6692 63.8817 26.72L62.2817 25.52ZM69.4817 36.16C69.4817 37.0295 69.2998 37.7521 68.9661 38.3569L70.7173 39.3231C71.2369 38.3812 71.4817 37.3171 71.4817 36.16H69.4817ZM68.9602 38.3678C68.6128 39.0164 68.2404 39.4403 67.8683 39.7008L69.0152 41.3392C69.7097 40.8531 70.2707 40.1569 70.7232 39.3122L68.9602 38.3678ZM67.877 39.6947C67.467 39.9753 66.9617 40.2153 66.3476 40.4042L66.9358 42.3158C67.7084 42.0781 68.4031 41.7581 69.0064 41.3453L67.877 39.6947ZM66.3517 40.403C65.552 40.6453 64.8101 40.76 64.1217 40.76V42.76C65.0334 42.76 65.9714 42.608 66.9317 42.317L66.3517 40.403ZM64.1217 40.76C62.1731 40.76 60.8634 40.0546 60.0059 38.704L58.3175 39.776C59.5933 41.7854 61.5903 42.76 64.1217 42.76V40.76ZM60.0059 38.704C59.0674 37.2257 58.5617 35.2928 58.5617 32.84H56.5617C56.5617 35.5605 57.1227 37.8943 58.3175 39.776L60.0059 38.704ZM58.5617 32.84C58.5617 30.4021 59.1684 28.2735 60.3622 26.4219L58.6813 25.3381C57.2617 27.5399 56.5617 30.0512 56.5617 32.84H58.5617ZM60.3571 26.4296C61.487 24.7123 63.143 23.84 65.4817 23.84V21.84C62.5404 21.84 60.2231 22.9944 58.6863 25.3304L60.3571 26.4296ZM65.4817 23.84C67.6274 23.84 68.8364 24.5651 69.4701 25.8129L71.2533 24.9071C70.1804 22.7949 68.136 21.84 65.4817 21.84V23.84ZM69.4824 25.8363C69.7687 26.3647 69.8817 26.8151 69.8817 27.2H71.8817C71.8817 26.4116 71.6481 25.6353 71.241 24.8837L69.4824 25.8363ZM69.8817 27.2C69.8817 27.7353 69.8558 28.1321 69.8133 28.4079L71.7901 28.7121C71.8543 28.2945 71.8817 27.7847 71.8817 27.2H69.8817ZM69.8153 28.3956C69.7874 28.5634 69.658 28.9453 69.3402 29.6073L71.1432 30.4727C71.4655 29.8014 71.7094 29.1966 71.7881 28.7244L69.8153 28.3956ZM69.3402 29.6073C69.07 30.1701 68.7097 30.6778 68.2546 31.1329L69.6688 32.5471C70.2804 31.9356 70.7734 31.2432 71.1432 30.4727L69.3402 29.6073ZM68.2546 31.1329C67.8539 31.5336 67.15 31.9794 66.0556 32.4376L66.8279 34.2824C68.0268 33.7806 69.0029 33.213 69.6688 32.5471L68.2546 31.1329ZM66.0556 32.4376C65.0186 32.8716 63.7713 33.173 62.2988 33.3253L62.5046 35.3147C64.1254 35.147 65.5715 34.8084 66.8279 34.2824L66.0556 32.4376ZM62.4017 33.32C62.1713 33.32 61.8117 33.3675 61.5032 33.6374C61.1693 33.9296 61.0817 34.3152 61.0817 34.6H63.0817C63.0817 34.6981 63.0475 34.9437 62.8202 35.1426C62.6184 35.3191 62.4188 35.32 62.4017 35.32V33.32ZM61.0817 34.6C61.0817 35.0116 61.2081 35.5015 61.373 35.9962L63.2704 35.3638C63.1153 34.8985 63.0817 34.6684 63.0817 34.6H61.0817ZM61.397 36.0607C61.6023 36.5593 61.8315 37.0074 62.0897 37.3947L63.7538 36.2853C63.5853 36.0326 63.4145 35.7074 63.2464 35.2993L61.397 36.0607ZM62.1354 37.4578C62.9515 38.4965 64.139 38.96 65.5217 38.96V36.96C64.6111 36.96 64.0653 36.6768 63.708 36.2222L62.1354 37.4578ZM65.5217 38.96C66.9083 38.96 68.1293 38.4994 69.124 37.5711L67.7594 36.1089C67.1541 36.6739 66.4284 36.96 65.5217 36.96V38.96ZM69.1257 37.5695C69.657 37.0714 70.0768 36.4673 70.3921 35.7738L68.5714 34.9462C68.3533 35.426 68.0798 35.8086 67.7578 36.1105L69.1257 37.5695ZM70.3761 35.8072C70.3888 35.7819 70.3683 35.8354 70.2864 35.9009C70.1886 35.9792 70.0446 36.04 69.8817 36.04V34.04C69.1721 34.04 68.7703 34.5468 68.5873 34.9128L70.3761 35.8072ZM69.8817 36.04C69.7933 36.04 69.7 36.0218 69.6115 35.9828C69.525 35.9448 69.4635 35.896 69.4246 35.8571C69.3558 35.7883 69.3556 35.7493 69.3819 35.8217L71.2615 35.1383C71.1197 34.7483 70.7361 34.04 69.8817 34.04V36.04ZM69.3819 35.8217C69.426 35.9431 69.4531 36.0342 69.4683 36.099C69.4845 36.168 69.4817 36.1833 69.4817 36.16H71.4817C71.4817 35.8191 71.3776 35.4574 71.2615 35.1383L69.3819 35.8217ZM72.0883 25.4L71.0911 25.3252L71.0815 25.4529L71.1044 25.5789L72.0883 25.4ZM72.2083 23.8L71.2144 23.6896L71.2124 23.7074L71.2111 23.7252L72.2083 23.8ZM74.1683 23.44V24.44H75.2195L75.167 23.3901L74.1683 23.44ZM74.0083 20.24H73.0083V20.265L73.0095 20.2899L74.0083 20.24ZM75.4083 18.32L74.8938 17.4625L74.8938 17.4625L75.4083 18.32ZM78.3283 17.84L79.3175 17.9865L79.3283 17.9137V17.84H78.3283ZM78.0083 23.4L77.0089 23.3643L76.9719 24.4H78.0083V23.4ZM80.6083 24.96L81.4616 25.4814L81.4678 25.4713L81.4737 25.461L80.6083 24.96ZM79.6483 25.72V26.72H79.6867L79.725 26.7171L79.6483 25.72ZM77.9683 25.72V24.72H76.9973L76.9687 25.6906L77.9683 25.72ZM77.9683 35.6L76.9685 35.6192L76.9687 35.6288L76.969 35.6384L77.9683 35.6ZM78.1283 38.76L77.131 38.8339L77.1312 38.8367L78.1283 38.76ZM78.2883 40.44L77.296 40.564L77.2998 40.5943L77.3054 40.6243L78.2883 40.44ZM78.4483 41.36L77.4583 41.5014L77.468 41.569L77.4868 41.6347L78.4483 41.36ZM78.0083 42.16V43.16H78.0467L78.085 43.1571L78.0083 42.16ZM74.8883 41.72L74.6102 42.6806L74.6168 42.6824L74.8883 41.72ZM73.3683 40.2L72.376 40.076L72.3683 40.1377V40.2H73.3683ZM74.2083 25.76H75.2083V24.76H74.2083V25.76ZM72.5683 25.84V26.84H72.6393L72.7097 26.8299L72.5683 25.84ZM73.0855 25.4748L73.2055 23.8748L71.2111 23.7252L71.0911 25.3252L73.0855 25.4748ZM73.2022 23.9104C73.1956 23.9699 73.1746 24.0577 73.1186 24.1523C73.0612 24.2492 72.9851 24.3223 72.909 24.3712C72.7741 24.4579 72.6875 24.44 72.7683 24.44V22.44C72.5024 22.44 72.1491 22.4821 71.8275 22.6888C71.4563 22.9274 71.2576 23.3003 71.2144 23.6896L73.2022 23.9104ZM72.7683 24.44H74.1683V22.44H72.7683V24.44ZM75.167 23.3901L75.007 20.1901L73.0095 20.2899L73.1695 23.4899L75.167 23.3901ZM75.0083 20.24V20.08H73.0083V20.24H75.0083ZM75.0083 20.08C75.0083 20.024 75.0571 19.6969 75.9228 19.1775L74.8938 17.4625C73.8928 18.0631 73.0083 18.9094 73.0083 20.08H75.0083ZM75.9228 19.1775C76.7609 18.6746 77.4355 18.48 77.9683 18.48V16.48C76.9544 16.48 75.9223 16.8454 74.8938 17.4625L75.9228 19.1775ZM77.9683 18.48C77.9613 18.48 77.7692 18.481 77.5739 18.3074C77.3562 18.1139 77.3283 17.88 77.3283 17.8H79.3283C79.3283 17.5067 79.2404 17.1128 78.9026 16.8126C78.5874 16.5323 78.2153 16.48 77.9683 16.48V18.48ZM77.3283 17.8V17.84H79.3283V17.8H77.3283ZM77.3391 17.6934C77.2224 18.4813 77.1148 20.3995 77.0089 23.3643L79.0076 23.4357C79.1151 20.4272 79.2209 18.6387 79.3175 17.9865L77.3391 17.6934ZM78.0083 24.4C79.1562 24.4 79.994 24.3762 80.4127 24.3064L80.0839 22.3336C79.8625 22.3705 79.207 22.4 78.0083 22.4V24.4ZM80.4127 24.3064C80.5714 24.2799 80.6899 24.2607 80.7703 24.2484C80.8111 24.2421 80.8377 24.2383 80.8529 24.2362C80.8609 24.2352 80.861 24.2352 80.8561 24.2358C80.8536 24.236 80.8461 24.2368 80.8354 24.2376C80.8279 24.2381 80.8023 24.24 80.7683 24.24V22.24C80.6808 22.24 80.5914 22.2534 80.5886 22.2538C80.5539 22.2584 80.5121 22.2646 80.4662 22.2716C80.3733 22.2859 80.2452 22.3067 80.0839 22.3336L80.4127 24.3064ZM80.7683 24.24C80.6687 24.24 80.5331 24.2174 80.3946 24.1382C80.2558 24.0589 80.1663 23.9526 80.1145 23.8639C80.0286 23.7166 80.0483 23.6245 80.0483 23.72H82.0483C82.0483 23.4955 82.0213 23.1634 81.8421 22.8561C81.6145 22.466 81.2139 22.24 80.7683 22.24V24.24ZM80.0483 23.72C80.0483 23.7715 80.0103 23.997 79.7429 24.459L81.4737 25.461C81.7929 24.9096 82.0483 24.3085 82.0483 23.72H80.0483ZM79.755 24.4385C79.6482 24.6133 79.5675 24.6943 79.5276 24.726C79.4959 24.751 79.5138 24.7274 79.5716 24.7229L79.725 26.7171C80.5498 26.6536 81.1054 26.0643 81.4616 25.4814L79.755 24.4385ZM79.6483 24.72H77.9683V26.72H79.6483V24.72ZM76.9687 25.6906C76.9416 26.6134 76.9283 28.1598 76.9283 30.32H78.9283C78.9283 28.1602 78.9417 26.6399 78.9678 25.7494L76.9687 25.6906ZM76.9283 30.32C76.9283 32.4567 76.9416 34.2237 76.9685 35.6192L78.9681 35.5808C78.9416 34.2029 78.9283 32.4499 78.9283 30.32H76.9283ZM76.969 35.6384C77.0225 37.0283 77.0763 38.0958 77.131 38.8339L79.1255 38.6861C79.0736 37.9842 79.0208 36.9451 78.9675 35.5616L76.969 35.6384ZM77.1312 38.8367C77.1851 39.5375 77.2399 40.1151 77.296 40.564L79.2806 40.316C79.23 39.9116 79.1781 39.3692 79.1253 38.6833L77.1312 38.8367ZM77.3054 40.6243C77.3853 41.0502 77.435 41.3382 77.4583 41.5014L79.4382 41.2186C79.4082 41.0085 79.3513 40.6832 79.2712 40.2557L77.3054 40.6243ZM77.4868 41.6347C77.5107 41.7185 77.5248 41.7741 77.5321 41.8069C77.5357 41.8232 77.536 41.8263 77.5349 41.8196C77.5343 41.8158 77.5329 41.8061 77.5315 41.7917C77.5303 41.7782 77.5283 41.7531 77.5283 41.72H79.5283C79.5283 41.5737 79.4985 41.4364 79.4845 41.3731C79.4651 41.2859 79.4392 41.1882 79.4098 41.0853L77.4868 41.6347ZM77.5283 41.72C77.5283 41.6786 77.5351 41.6025 77.5736 41.5108C77.6138 41.4149 77.6768 41.3305 77.7523 41.2666C77.891 41.1493 77.9998 41.1577 77.9316 41.1629L78.085 43.1571C78.3634 43.1356 78.7322 43.0574 79.0442 42.7934C79.3955 42.4962 79.5283 42.0906 79.5283 41.72H77.5283ZM78.0083 41.16C77.0636 41.16 76.1149 41.0269 75.1597 40.7576L74.6168 42.6824C75.7417 42.9997 76.873 43.16 78.0083 43.16V41.16ZM75.1663 40.7594C74.7507 40.6391 74.5462 40.5037 74.4554 40.4129C74.3906 40.3481 74.3683 40.2962 74.3683 40.2H72.3683C72.3683 40.8238 72.5993 41.3852 73.0412 41.8271C73.4571 42.243 74.0126 42.5076 74.6102 42.6806L75.1663 40.7594ZM74.3606 40.324C74.9264 35.7977 75.2083 30.9425 75.2083 25.76H73.2083C73.2083 30.8708 72.9302 35.6423 72.376 40.076L74.3606 40.324ZM74.2083 24.76C73.4753 24.76 72.8718 24.7865 72.4269 24.8501L72.7097 26.8299C73.0114 26.7868 73.5013 26.76 74.2083 26.76V24.76ZM72.5683 24.84H72.5283V26.84H72.5683V24.84ZM72.5283 24.84C72.5703 24.84 72.6388 24.8465 72.7204 24.8775C72.8048 24.9095 72.8823 24.9598 72.9454 25.0229C73.0662 25.1437 73.0777 25.2515 73.0722 25.2211L71.1044 25.5789C71.1522 25.8419 71.2637 26.1696 71.5312 26.4371C71.8217 26.7276 72.1882 26.84 72.5283 26.84V24.84ZM101.541 18.84L100.549 18.712L100.541 18.7757V18.84H101.541ZM101.701 17.6L102.693 17.728L102.701 17.6642V17.6H101.701ZM100.261 15.24L100.601 14.2994L100.584 14.2934L100.567 14.288L100.261 15.24ZM96.4211 15.28L96.7997 16.2055L96.8175 16.1983L96.8349 16.1904L96.4211 15.28ZM95.1411 16.2L95.9511 16.7865L95.9548 16.7812L95.1411 16.2ZM94.1811 18.64L93.1855 18.5467L93.1811 18.5932V18.64H94.1811ZM95.5411 21.28L94.9054 22.0519L94.9122 22.0576L94.9192 22.0631L95.5411 21.28ZM98.8211 23.2L98.4203 24.1162L98.4317 24.1211L98.4432 24.1258L98.8211 23.2ZM102.701 24.96L102.254 25.8545L102.261 25.8581L102.701 24.96ZM106.021 27.72L105.223 28.3228L105.223 28.3228L106.021 27.72ZM104.261 39.4L103.645 38.6123L103.64 38.6162L104.261 39.4ZM90.7011 40.08L90.1259 40.898L90.1332 40.9031L90.1405 40.9081L90.7011 40.08ZM88.5811 32.68L87.6619 32.2861L87.6584 32.2944L87.655 32.3027L88.5811 32.68ZM89.7011 31.04L90.3317 31.8161L90.3343 31.814L89.7011 31.04ZM92.1011 29.88L92.175 30.8773L92.1841 30.8765L92.1011 29.88ZM92.5811 29.84V28.84H92.5395L92.498 28.8435L92.5811 29.84ZM94.6211 30.4L94.1011 31.2542L94.115 31.2626L94.129 31.2706L94.6211 30.4ZM95.0211 32.68L94.497 31.8283L94.497 31.8283L95.0211 32.68ZM94.1011 33.64L93.2531 33.11L93.2408 33.1296L93.2295 33.1497L94.1011 33.64ZM93.7011 34.72L94.685 34.8989L94.6929 34.855L94.697 34.8105L93.7011 34.72ZM93.6211 35.16L92.6372 34.9811L92.6211 35.0698V35.16H93.6211ZM95.8611 38.4L95.5248 39.3418L95.5307 39.3439L95.8611 38.4ZM100.661 37.36L99.9646 36.6424L99.9593 36.6476L99.954 36.6529L100.661 37.36ZM99.9411 30.04L100.531 29.2326L100.524 29.2277L99.9411 30.04ZM96.5411 28.16L96.1521 29.0813L96.1593 29.0843L96.5411 28.16ZM94.1011 27.08L94.5483 26.1856L94.5483 26.1856L94.1011 27.08ZM92.7411 26.32L92.2196 27.1733L92.2196 27.1733L92.7411 26.32ZM91.1411 25.08L91.8138 24.3401L91.8067 24.3337L91.7996 24.3274L91.1411 25.08ZM90.7811 15.72L91.5635 16.3428L91.5671 16.3382L90.7811 15.72ZM104.181 13.32L103.687 14.1893L103.693 14.193L103.7 14.1966L104.181 13.32ZM105.381 18.84L104.629 18.1815L104.621 18.1906L104.613 18.1998L105.381 18.84ZM102.101 19.56L101.707 20.4791L101.718 20.4839L101.73 20.4885L102.101 19.56ZM102.533 18.968L102.693 17.728L100.709 17.472L100.549 18.712L102.533 18.968ZM102.701 17.6C102.701 16.862 102.557 16.1631 102.195 15.5691C101.823 14.9604 101.27 14.5413 100.601 14.2994L99.9214 16.1806C100.212 16.2854 100.379 16.433 100.487 16.6109C100.605 16.8035 100.701 17.1113 100.701 17.6H102.701ZM100.567 14.288C99.7974 14.0406 99.1024 13.88 98.5411 13.88V15.88C98.7798 15.88 99.2315 15.9594 99.9551 16.192L100.567 14.288ZM98.5411 13.88H98.5011V15.88H98.5411V13.88ZM98.5011 13.88C97.5919 13.88 96.7513 14.0314 96.0073 14.3696L96.8349 16.1904C97.2642 15.9952 97.8103 15.88 98.5011 15.88V13.88ZM96.0425 14.3545C95.3453 14.6397 94.738 15.0439 94.3274 15.6188L95.9548 16.7812C96.0775 16.6094 96.3235 16.4003 96.7997 16.2055L96.0425 14.3545ZM94.3312 15.6135C93.6785 16.5147 93.284 17.4956 93.1855 18.5467L95.1767 18.7333C95.2382 18.0778 95.4837 17.4319 95.951 16.7865L94.3312 15.6135ZM93.1811 18.64C93.1811 20.0015 93.8091 21.1491 94.9054 22.0519L96.1768 20.5081C95.4598 19.9176 95.1811 19.3052 95.1811 18.64H93.1811ZM94.9192 22.0631C95.9057 22.8465 97.0769 23.5284 98.4203 24.1162L99.2219 22.2838C98.0053 21.7516 96.9898 21.1535 96.163 20.4969L94.9192 22.0631ZM98.4432 24.1258C99.726 24.6495 100.996 25.2256 102.254 25.8544L103.148 24.0656C101.846 23.4144 100.529 22.8172 99.199 22.2742L98.4432 24.1258ZM102.261 25.8581C103.422 26.4267 104.408 27.2436 105.223 28.3228L106.819 27.1172C105.821 25.7964 104.593 24.7733 103.141 24.0619L102.261 25.8581ZM105.223 28.3228C105.983 29.329 106.381 30.5508 106.381 32.04H108.381C108.381 30.1692 107.872 28.511 106.819 27.1172L105.223 28.3228ZM106.381 32.04C106.381 35.0945 105.425 37.2206 103.645 38.6123L104.877 40.1877C107.258 38.3261 108.381 35.5455 108.381 32.04H106.381ZM103.64 38.6162C101.765 40.1017 99.6376 40.84 97.2211 40.84V42.84C100.085 42.84 102.651 41.9517 104.882 40.1838L103.64 38.6162ZM97.2211 40.84C94.7577 40.84 92.7926 40.2882 91.2617 39.2519L90.1405 40.9081C92.0763 42.2185 94.4578 42.84 97.2211 42.84V40.84ZM91.2763 39.262C89.8223 38.2397 89.1411 36.9381 89.1411 35.28H87.1411C87.1411 37.6219 88.1665 39.5203 90.1259 40.898L91.2763 39.262ZM89.1411 35.28V35.24H87.1411V35.28H89.1411ZM89.1411 35.24C89.1411 34.3493 89.2739 33.63 89.5072 33.0573L87.655 32.3027C87.3017 33.17 87.1411 34.1574 87.1411 35.24H89.1411ZM89.5002 33.0739C89.7846 32.4104 90.0765 32.0235 90.3317 31.8161L89.0705 30.2639C88.4724 30.7499 88.0176 31.4562 87.6619 32.2861L89.5002 33.0739ZM90.3343 31.814C91.1399 31.1549 91.7471 30.909 92.175 30.8773L92.0272 28.8827C91.0151 28.9577 90.0223 29.4851 89.0679 30.266L90.3343 31.814ZM92.1841 30.8765L92.6641 30.8365L92.498 28.8435L92.018 28.8835L92.1841 30.8765ZM92.5811 30.84C93.152 30.84 93.6509 30.9801 94.1011 31.2542L95.141 29.5458C94.3646 29.0732 93.5035 28.84 92.5811 28.84V30.84ZM94.129 31.2706C94.467 31.4616 94.5411 31.6427 94.5411 31.88H96.5411C96.5411 30.8373 96.0018 30.0317 95.1132 29.5294L94.129 31.2706ZM94.5411 31.88C94.5411 31.8685 94.5428 31.8495 94.5496 31.8267C94.5563 31.8038 94.5655 31.786 94.5727 31.775C94.5861 31.7544 94.5782 31.7783 94.497 31.8283L95.5452 33.5317C96.0956 33.193 96.5411 32.6431 96.5411 31.88H94.5411ZM94.497 31.8283C93.9917 32.1393 93.5826 32.5828 93.2531 33.11L94.9491 34.17C95.1529 33.8438 95.3572 33.6474 95.5452 33.5317L94.497 31.8283ZM93.2295 33.1497C92.9603 33.6284 92.7504 34.1324 92.7052 34.6295L94.697 34.8105C94.7051 34.7209 94.7619 34.505 94.9727 34.1303L93.2295 33.1497ZM92.7172 34.5411L92.6372 34.9811L94.605 35.3389L94.685 34.8989L92.7172 34.5411ZM92.6211 35.16C92.6211 36.1276 92.8446 37.0154 93.3585 37.7587C93.8739 38.5041 94.6228 39.0196 95.5248 39.3417L96.1974 37.4583C95.6061 37.2471 95.235 36.9559 95.0037 36.6213C94.7709 36.2846 94.6211 35.8191 94.6211 35.16H92.6211ZM95.5307 39.3439C96.102 39.5438 96.6538 39.68 97.1411 39.68V37.68C96.9884 37.68 96.6869 37.6296 96.1914 37.4561L95.5307 39.3439ZM97.1411 39.68C98.822 39.68 100.267 39.1678 101.368 38.0671L99.954 36.6529C99.2947 37.3122 98.3935 37.68 97.1411 37.68V39.68ZM101.358 38.0776C102.474 36.9939 103.021 35.6075 103.021 34H101.021C101.021 35.1125 100.661 35.9661 99.9646 36.6424L101.358 38.0776ZM103.021 34C103.021 32.0339 102.159 30.4219 100.531 29.2326L99.3511 30.8474C100.497 31.6848 101.021 32.7128 101.021 34H103.021ZM100.524 29.2277C99.4194 28.4344 98.2181 27.7708 96.9229 27.2357L96.1593 29.0843C97.3174 29.5626 98.3828 30.1522 99.3579 30.8523L100.524 29.2277ZM96.9301 27.2387C95.7272 26.7309 94.9422 26.3825 94.5483 26.1856L93.6539 27.9744C94.1133 28.2041 94.955 28.5758 96.1521 29.0812L96.9301 27.2387ZM94.5483 26.1856C94.151 25.9869 93.7225 25.7478 93.2625 25.4667L92.2196 27.1733C92.7197 27.4788 93.1979 27.7464 93.6539 27.9744L94.5483 26.1856ZM93.2625 25.4667C92.8533 25.2166 92.3711 24.8467 91.8138 24.3401L90.4684 25.8199C91.0845 26.38 91.6689 26.8367 92.2196 27.1733L93.2625 25.4667ZM91.7996 24.3274C90.7627 23.4201 90.2211 22.2015 90.2211 20.56H88.2211C88.2211 22.7052 88.9595 24.4999 90.4826 25.8326L91.7996 24.3274ZM90.2211 20.56C90.2211 18.8307 90.685 17.4465 91.5635 16.3427L89.9987 15.0973C88.7971 16.6069 88.2211 18.4493 88.2211 20.56H90.2211ZM91.5671 16.3382C93.1997 14.2625 95.6744 13.16 99.1811 13.16V11.16C95.2211 11.16 92.0959 12.4308 89.9951 15.1018L91.5671 16.3382ZM99.1811 13.16C101.026 13.16 102.512 13.5212 103.687 14.1893L104.675 12.4507C103.13 11.5721 101.283 11.16 99.1811 11.16V13.16ZM103.7 14.1966C104.803 14.8022 105.221 15.5383 105.221 16.44H107.221C107.221 14.6751 106.279 13.3311 104.662 12.4434L103.7 14.1966ZM105.221 16.44C105.221 17.1911 105.008 17.7474 104.629 18.1815L106.134 19.4985C106.874 18.6526 107.221 17.6089 107.221 16.44H105.221ZM104.613 18.1998C104.275 18.6055 103.866 18.8 103.301 18.8V20.8C104.443 20.8 105.421 20.3545 106.149 19.4802L104.613 18.1998ZM103.301 18.8C103.038 18.8 102.764 18.7479 102.472 18.6315L101.73 20.4885C102.239 20.6921 102.764 20.8 103.301 20.8V18.8ZM102.495 18.6409C102.414 18.606 102.431 18.5951 102.47 18.6461C102.491 18.6728 102.511 18.708 102.525 18.7488C102.538 18.789 102.541 18.8216 102.541 18.84H100.541C100.541 19.2099 100.654 19.5688 100.892 19.8739C101.118 20.1649 101.415 20.354 101.707 20.4791L102.495 18.6409ZM108.612 25.4L107.615 25.3252L107.605 25.4529L107.628 25.5789L108.612 25.4ZM108.732 23.8L107.738 23.6896L107.736 23.7074L107.735 23.7252L108.732 23.8ZM110.692 23.44V24.44H111.743L111.69 23.3901L110.692 23.44ZM110.532 20.24H109.532V20.265L109.533 20.2899L110.532 20.24ZM111.932 18.32L111.417 17.4625L111.417 17.4625L111.932 18.32ZM114.852 17.84L115.841 17.9865L115.852 17.9137V17.84H114.852ZM114.532 23.4L113.532 23.3643L113.495 24.4H114.532V23.4ZM117.132 24.96L117.985 25.4814L117.991 25.4713L117.997 25.461L117.132 24.96ZM116.172 25.72V26.72H116.21L116.248 26.7171L116.172 25.72ZM114.492 25.72V24.72H113.521L113.492 25.6906L114.492 25.72ZM114.492 35.6L113.492 35.6192L113.492 35.6288L113.492 35.6384L114.492 35.6ZM114.652 38.76L113.654 38.8339L113.655 38.8367L114.652 38.76ZM114.812 40.44L113.819 40.564L113.823 40.5943L113.829 40.6243L114.812 40.44ZM114.972 41.36L113.982 41.5014L113.991 41.569L114.01 41.6347L114.972 41.36ZM114.532 42.16V43.16H114.57L114.608 43.1571L114.532 42.16ZM111.412 41.72L111.134 42.6806L111.14 42.6824L111.412 41.72ZM109.892 40.2L108.899 40.076L108.892 40.1377V40.2H109.892ZM110.732 25.76H111.732V24.76H110.732V25.76ZM109.092 25.84V26.84H109.163L109.233 26.8299L109.092 25.84ZM109.609 25.4748L109.729 23.8748L107.735 23.7252L107.615 25.3252L109.609 25.4748ZM109.726 23.9104C109.719 23.9699 109.698 24.0577 109.642 24.1523C109.585 24.2492 109.509 24.3223 109.432 24.3712C109.298 24.4579 109.211 24.44 109.292 24.44V22.44C109.026 22.44 108.673 22.4821 108.351 22.6888C107.98 22.9274 107.781 23.3003 107.738 23.6896L109.726 23.9104ZM109.292 24.44H110.692V22.44H109.292V24.44ZM111.69 23.3901L111.53 20.1901L109.533 20.2899L109.693 23.4899L111.69 23.3901ZM111.532 20.24V20.08H109.532V20.24H111.532ZM111.532 20.08C111.532 20.024 111.58 19.6969 112.446 19.1775L111.417 17.4625C110.416 18.0631 109.532 18.9094 109.532 20.08H111.532ZM112.446 19.1775C113.284 18.6746 113.959 18.48 114.492 18.48V16.48C113.478 16.48 112.446 16.8454 111.417 17.4625L112.446 19.1775ZM114.492 18.48C114.485 18.48 114.293 18.481 114.097 18.3074C113.88 18.1139 113.852 17.88 113.852 17.8H115.852C115.852 17.5067 115.764 17.1128 115.426 16.8126C115.111 16.5323 114.739 16.48 114.492 16.48V18.48ZM113.852 17.8V17.84H115.852V17.8H113.852ZM113.863 17.6934C113.746 18.4813 113.638 20.3995 113.532 23.3643L115.531 23.4357C115.639 20.4272 115.744 18.6387 115.841 17.9865L113.863 17.6934ZM114.532 24.4C115.68 24.4 116.517 24.3762 116.936 24.3064L116.607 22.3336C116.386 22.3705 115.73 22.4 114.532 22.4V24.4ZM116.936 24.3064C117.095 24.2799 117.213 24.2607 117.294 24.2484C117.335 24.2421 117.361 24.2383 117.376 24.2362C117.384 24.2352 117.384 24.2352 117.38 24.2358C117.377 24.236 117.37 24.2368 117.359 24.2376C117.351 24.2381 117.326 24.24 117.292 24.24V22.24C117.204 22.24 117.115 22.2534 117.112 22.2538C117.077 22.2584 117.036 22.2646 116.99 22.2716C116.897 22.2859 116.769 22.3067 116.607 22.3336L116.936 24.3064ZM117.292 24.24C117.192 24.24 117.057 24.2174 116.918 24.1382C116.779 24.0589 116.69 23.9526 116.638 23.8639C116.552 23.7166 116.572 23.6245 116.572 23.72H118.572C118.572 23.4955 118.545 23.1634 118.365 22.8561C118.138 22.466 117.737 22.24 117.292 22.24V24.24ZM116.572 23.72C116.572 23.7715 116.534 23.997 116.266 24.459L117.997 25.461C118.316 24.9096 118.572 24.3085 118.572 23.72H116.572ZM116.278 24.4385C116.172 24.6133 116.091 24.6943 116.051 24.726C116.019 24.751 116.037 24.7274 116.095 24.7229L116.248 26.7171C117.073 26.6536 117.629 26.0643 117.985 25.4814L116.278 24.4385ZM116.172 24.72H114.492V26.72H116.172V24.72ZM113.492 25.6906C113.465 26.6134 113.452 28.1598 113.452 30.32H115.452C115.452 28.1602 115.465 26.6399 115.491 25.7494L113.492 25.6906ZM113.452 30.32C113.452 32.4567 113.465 34.2237 113.492 35.6192L115.492 35.5808C115.465 34.2029 115.452 32.4499 115.452 30.32H113.452ZM113.492 35.6384C113.546 37.0283 113.6 38.0958 113.654 38.8339L115.649 38.6861C115.597 37.9842 115.544 36.9451 115.491 35.5616L113.492 35.6384ZM113.655 38.8367C113.709 39.5375 113.763 40.1151 113.819 40.564L115.804 40.316C115.753 39.9116 115.702 39.3692 115.649 38.6833L113.655 38.8367ZM113.829 40.6243C113.909 41.0502 113.958 41.3382 113.982 41.5014L115.962 41.2186C115.932 41.0085 115.875 40.6832 115.795 40.2557L113.829 40.6243ZM114.01 41.6347C114.034 41.7185 114.048 41.7741 114.056 41.8069C114.059 41.8232 114.059 41.8263 114.058 41.8196C114.058 41.8158 114.056 41.8061 114.055 41.7917C114.054 41.7782 114.052 41.7531 114.052 41.72H116.052C116.052 41.5737 116.022 41.4364 116.008 41.3731C115.989 41.2859 115.963 41.1882 115.933 41.0853L114.01 41.6347ZM114.052 41.72C114.052 41.6786 114.059 41.6025 114.097 41.5108C114.137 41.4149 114.2 41.3305 114.276 41.2666C114.414 41.1493 114.523 41.1577 114.455 41.1629L114.608 43.1571C114.887 43.1356 115.256 43.0574 115.568 42.7934C115.919 42.4962 116.052 42.0906 116.052 41.72H114.052ZM114.532 41.16C113.587 41.16 112.638 41.0269 111.683 40.7576L111.14 42.6824C112.265 42.9997 113.396 43.16 114.532 43.16V41.16ZM111.69 40.7594C111.274 40.6391 111.07 40.5037 110.979 40.4129C110.914 40.3481 110.892 40.2962 110.892 40.2H108.892C108.892 40.8238 109.123 41.3852 109.565 41.8271C109.981 42.243 110.536 42.5076 111.134 42.6806L111.69 40.7594ZM110.884 40.324C111.45 35.7977 111.732 30.9425 111.732 25.76H109.732C109.732 30.8708 109.454 35.6423 108.899 40.076L110.884 40.324ZM110.732 24.76C109.999 24.76 109.395 24.7865 108.95 24.8501L109.233 26.8299C109.535 26.7868 110.025 26.76 110.732 26.76V24.76ZM109.092 24.84H109.052V26.84H109.092V24.84ZM109.052 24.84C109.094 24.84 109.162 24.8465 109.244 24.8775C109.328 24.9095 109.406 24.9598 109.469 25.0229C109.59 25.1437 109.601 25.2515 109.596 25.2211L107.628 25.5789C107.676 25.8419 107.787 26.1696 108.055 26.4371C108.345 26.7276 108.712 26.84 109.052 26.84V24.84ZM131.517 29L132.517 29.0156L132.517 29.0078V29H131.517ZM131.437 34.12L130.437 34.1044L130.437 34.1122V34.12H131.437ZM132.597 40.52L133.304 39.8129L133.292 39.8003L133.278 39.7881L132.597 40.52ZM127.437 39.96L128.432 39.8553L128.431 39.8496L127.437 39.96ZM127.397 38.48L126.397 38.455L126.397 38.4675V38.48H127.397ZM127.557 32.08L128.557 32.105L128.557 32.0925V32.08H127.557ZM123.637 32.88L124.178 33.7212L124.178 33.7212L123.637 32.88ZM122.437 37.12L123.218 36.4953L123.218 36.4953L122.437 37.12ZM124.757 37.44L124.253 36.5762L124.236 36.586L124.22 36.5963L124.757 37.44ZM125.317 37.12L125.434 36.1268L125.137 36.0919L124.87 36.2256L125.317 37.12ZM124.757 40.72L125.299 41.5603L125.309 41.5542L125.318 41.5479L124.757 40.72ZM119.797 41.04L119.35 41.9344L119.357 41.938L119.364 41.9415L119.797 41.04ZM118.397 39.96L119.203 39.3686L119.203 39.3686L118.397 39.96ZM117.677 38.6L116.72 38.8912L116.729 38.9187L116.739 38.9457L117.677 38.6ZM119.157 32.52L118.467 31.7966L118.467 31.7966L119.157 32.52ZM123.677 30.12L123.483 29.139L123.454 29.1448L123.425 29.1524L123.677 30.12ZM127.477 28.8L126.512 28.5369L126.511 28.5423L127.477 28.8ZM123.797 25.8L124.411 26.5894L124.424 26.579L124.437 26.5682L123.797 25.8ZM123.077 27.24H122.077V27.3631L122.107 27.4825L123.077 27.24ZM123.317 28.2L124.31 28.3168L124.332 28.135L124.287 27.9575L123.317 28.2ZM121.877 29L121.789 28.0039L121.786 28.0041L121.877 29ZM121.437 29.04V30.04H121.482L121.528 30.0359L121.437 29.04ZM119.517 28.44L118.855 29.1898L118.866 29.1992L118.877 29.2082L119.517 28.44ZM119.237 25.44L118.361 24.9581L118.356 24.9661L118.352 24.9743L119.237 25.44ZM120.317 24.16L119.717 23.36L119.717 23.36L120.317 24.16ZM122.277 23.32L122.54 24.2848L122.55 24.2822L122.559 24.2794L122.277 23.32ZM126.797 23L126.68 23.9931L126.68 23.9931L126.797 23ZM128.637 23.4L128.371 24.364L128.39 24.3693L128.41 24.3738L128.637 23.4ZM130.597 24.52L129.855 25.1909L129.864 25.2004L129.873 25.2097L130.597 24.52ZM131.437 26.32L130.438 26.3616L130.439 26.3842L130.441 26.4066L131.437 26.32ZM130.517 28.9844L130.437 34.1044L132.437 34.1356L132.517 29.0156L130.517 28.9844ZM130.437 34.12C130.437 35.9206 130.535 37.4077 130.743 38.5583C130.941 39.6529 131.274 40.6546 131.916 41.2519L133.278 39.7881C133.147 39.6654 132.899 39.2404 132.711 38.2017C132.533 37.219 132.437 35.866 132.437 34.12H130.437ZM131.89 41.2271C131.869 41.2064 131.833 41.1637 131.803 41.0961C131.772 41.0263 131.757 40.951 131.757 40.88H133.757C133.757 40.4458 133.571 40.0803 133.304 39.8129L131.89 41.2271ZM131.757 40.88C131.757 40.5514 131.959 40.3665 132.025 40.3203C132.069 40.2902 132.049 40.3172 131.882 40.3556C131.563 40.4293 131.005 40.48 130.157 40.48V42.48C131.042 42.48 131.785 42.4307 132.332 42.3044C132.599 42.2428 132.904 42.1448 133.164 41.9647C133.447 41.7685 133.757 41.4086 133.757 40.88H131.757ZM130.157 40.48C129.377 40.48 128.922 40.3597 128.685 40.2271C128.509 40.1286 128.45 40.0314 128.432 39.8553L126.443 40.0647C126.531 40.9019 126.979 41.5647 127.709 41.9729C128.378 42.3469 129.231 42.48 130.157 42.48V40.48ZM128.431 39.8496C128.411 39.6742 128.397 39.2372 128.397 38.48H126.397C126.397 39.2161 126.409 39.7658 126.443 40.0704L128.431 39.8496ZM128.397 38.505L128.557 32.105L126.557 32.055L126.397 38.455L128.397 38.505ZM128.557 32.08C128.557 31.7952 128.469 31.4096 128.136 31.1174C127.827 30.8475 127.467 30.8 127.237 30.8V32.8C127.22 32.8 127.02 32.7991 126.819 32.6226C126.591 32.4237 126.557 32.1781 126.557 32.08H128.557ZM127.237 30.8C125.757 30.8 124.371 31.2195 123.096 32.0388L124.178 33.7212C125.143 33.1005 126.157 32.8 127.237 32.8V30.8ZM123.096 32.0388C121.753 32.9025 120.957 34.1114 120.957 35.64H122.957C122.957 34.9286 123.281 34.2975 124.178 33.7212L123.096 32.0388ZM120.957 35.64C120.957 36.419 121.174 37.1421 121.656 37.7447L123.218 36.4953C123.06 36.2979 122.957 36.0343 122.957 35.64H120.957ZM121.656 37.7447C122.138 38.347 122.798 38.72 123.597 38.72V36.72C123.49 36.72 123.376 36.693 123.218 36.4953L121.656 37.7447ZM123.597 38.72C124.197 38.72 124.79 38.6043 125.294 38.2837L124.22 36.5963C124.137 36.649 123.957 36.72 123.597 36.72V38.72ZM125.261 38.3038C125.42 38.211 125.544 38.1394 125.633 38.0882C125.734 38.0308 125.768 38.0128 125.764 38.0144L124.87 36.2256C124.78 36.2707 124.555 36.4 124.253 36.5762L125.261 38.3038ZM125.2 38.1132C125.142 38.1063 125.065 38.0801 124.997 38.0269C124.935 37.9781 124.918 37.9361 124.923 37.947C124.929 37.9606 124.95 38.0122 124.968 38.1213C124.985 38.2286 124.997 38.3727 124.997 38.56H126.997C126.997 38.0494 126.937 37.5294 126.731 37.093C126.499 36.6008 126.064 36.201 125.434 36.1268L125.2 38.1132ZM124.997 38.56C124.997 39.0594 124.791 39.4889 124.196 39.8921L125.318 41.5479C126.376 40.8311 126.997 39.8206 126.997 38.56H124.997ZM124.215 39.8797C123.536 40.318 122.855 40.52 122.157 40.52V42.52C123.272 42.52 124.325 42.1886 125.299 41.5603L124.215 39.8797ZM122.157 40.52C121.367 40.52 120.734 40.3807 120.23 40.1385L119.364 41.9415C120.193 42.3393 121.134 42.52 122.157 42.52V40.52ZM120.244 40.1456C119.688 39.8674 119.371 39.5965 119.203 39.3686L117.591 40.5514C118.01 41.1235 118.626 41.5726 119.35 41.9344L120.244 40.1456ZM119.203 39.3686C118.97 39.0503 118.773 38.681 118.615 38.2543L116.739 38.9457C116.955 39.5323 117.237 40.0697 117.591 40.5514L119.203 39.3686ZM118.634 38.3088C118.465 37.7542 118.397 37.3232 118.397 37H116.397C116.397 37.5834 116.516 38.2192 116.72 38.8912L118.634 38.3088ZM118.397 37C118.397 35.3616 118.902 34.1457 119.848 33.2434L118.467 31.7966C117.065 33.1343 116.397 34.9051 116.397 37H118.397ZM119.848 33.2434C120.878 32.2594 122.225 31.5322 123.929 31.0876L123.425 29.1524C121.449 29.6678 119.782 30.5406 118.467 31.7966L119.848 33.2434ZM123.871 31.101C125.099 30.8582 126.076 30.6176 126.775 30.3746C127.121 30.2544 127.442 30.1194 127.701 29.9606C127.911 29.8322 128.311 29.5543 128.443 29.0577L126.511 28.5423C126.59 28.2457 126.791 28.1728 126.658 28.2544C126.574 28.3056 126.406 28.3856 126.119 28.4854C125.552 28.6824 124.682 28.9018 123.483 29.139L123.871 31.101ZM128.442 29.0631C128.56 28.6295 128.597 28.0183 128.597 27.32H126.597C126.597 28.0084 126.554 28.3838 126.512 28.5369L128.442 29.0631ZM128.597 27.32C128.597 26.4544 128.375 25.6226 127.757 25.0163C127.143 24.4134 126.307 24.2 125.437 24.2V26.2C126.008 26.2 126.251 26.3399 126.357 26.4437C126.459 26.5441 126.597 26.7723 126.597 27.32H128.597ZM125.437 24.2C124.585 24.2 123.813 24.4851 123.157 25.0318L124.437 26.5682C124.741 26.3149 125.062 26.2 125.437 26.2V24.2ZM123.183 25.0106C122.47 25.5654 122.077 26.3318 122.077 27.24H124.077C124.077 26.9748 124.164 26.7813 124.411 26.5894L123.183 25.0106ZM122.107 27.4825L122.347 28.4425L124.287 27.9575L124.047 26.9975L122.107 27.4825ZM122.324 28.0832C122.331 28.0266 122.354 27.9627 122.393 27.9098C122.429 27.8624 122.454 27.8532 122.431 27.8658C122.407 27.8795 122.347 27.9067 122.234 27.9349C122.123 27.9626 121.977 27.9873 121.789 28.0039L121.965 29.9961C122.478 29.9509 122.985 29.8461 123.403 29.6142C123.859 29.3605 124.238 28.9297 124.31 28.3168L122.324 28.0832ZM121.786 28.0041L121.346 28.0441L121.528 30.0359L121.968 29.9959L121.786 28.0041ZM121.437 28.04C120.804 28.04 120.412 27.8841 120.157 27.6718L118.877 29.2082C119.582 29.7959 120.47 30.04 121.437 30.04V28.04ZM120.179 27.6902C119.964 27.5008 119.837 27.2528 119.837 26.84H117.837C117.837 27.7606 118.163 28.5792 118.855 29.1898L120.179 27.6902ZM119.837 26.84C119.837 26.6215 119.906 26.3158 120.122 25.9057L118.352 24.9743C118.035 25.5775 117.837 26.2051 117.837 26.84H119.837ZM120.113 25.9219C120.348 25.4955 120.619 25.1835 120.917 24.96L119.717 23.36C119.162 23.7765 118.713 24.3179 118.361 24.9581L120.113 25.9219ZM120.917 24.96C121.196 24.751 121.708 24.5118 122.54 24.2848L122.014 22.3552C121.086 22.6082 120.292 22.929 119.717 23.36L120.917 24.96ZM122.559 24.2794C123.387 24.0359 124.158 23.92 124.877 23.92V21.92C123.942 21.92 122.98 22.0708 121.995 22.3606L122.559 24.2794ZM124.877 23.92C125.69 23.92 126.285 23.9466 126.68 23.9931L126.914 22.0068C126.403 21.9467 125.717 21.92 124.877 21.92V23.92ZM126.68 23.9931C127.059 24.0377 127.616 24.1557 128.371 24.364L128.903 22.436C128.111 22.2176 127.442 22.0689 126.914 22.0068L126.68 23.9931ZM128.41 24.3738C129.03 24.5185 129.497 24.7952 129.855 25.1909L131.339 23.8491C130.683 23.1248 129.844 22.6548 128.864 22.4262L128.41 24.3738ZM129.873 25.2097C130.275 25.6322 130.423 26.0117 130.438 26.3616L132.436 26.2784C132.397 25.3483 131.985 24.5278 131.321 23.8303L129.873 25.2097ZM130.441 26.4066C130.49 26.976 130.517 27.8347 130.517 29H132.517C132.517 27.8186 132.49 26.8907 132.433 26.2334L130.441 26.4066ZM146.138 30.28L145.14 30.2144L145.135 30.3041L145.145 30.3935L146.138 30.28ZM146.298 31.68H147.298V31.623L147.292 31.5665L146.298 31.68ZM142.218 28.8L143.175 29.0912L143.175 29.0912L142.218 28.8ZM142.098 26.04L141.306 26.6497L141.318 26.6652L141.33 26.6802L142.098 26.04ZM139.618 26.08L138.911 25.3729L138.911 25.3729L139.618 26.08ZM138.978 27.16L139.94 27.4347L139.949 27.4024L139.956 27.3695L138.978 27.16ZM138.818 27.72L137.857 27.4453L137.845 27.4872L137.837 27.53L138.818 27.72ZM138.658 36.44L137.659 36.4876L137.659 36.4887L138.658 36.44ZM138.818 38.72L137.826 38.844L137.827 38.8522L138.818 38.72ZM137.658 41.04L137.223 40.1398L137.211 40.1455L137.2 40.1514L137.658 41.04ZM133.938 41.16L132.951 41.0008L132.938 41.0799V41.16H133.938ZM134.138 39.92L135.126 40.0792L135.126 40.0789L134.138 39.92ZM134.298 23.24H133.298V23.339L133.318 23.4361L134.298 23.24ZM138.018 24.24L138.988 23.9975L138.963 23.8963L138.918 23.8025L138.018 24.24ZM138.698 24.04L138.065 23.266L138.065 23.266L138.698 24.04ZM144.058 23.4L144.432 22.4726L144.424 22.4692L144.058 23.4ZM146.338 27.24L147.336 27.3056L147.338 27.2729V27.24H146.338ZM145.145 30.3935L145.305 31.7935L147.292 31.5665L147.132 30.1665L145.145 30.3935ZM145.298 31.68C145.298 31.6424 145.309 31.563 145.363 31.4785C145.414 31.3977 145.469 31.367 145.472 31.3656C145.472 31.3654 145.461 31.3713 145.434 31.3798C145.407 31.3883 145.368 31.3983 145.315 31.4076C145.207 31.4267 145.057 31.44 144.858 31.44V33.44C145.394 33.44 145.949 33.3749 146.405 33.1344C146.648 33.0063 146.883 32.8173 147.054 32.5465C147.227 32.272 147.298 31.9709 147.298 31.68H145.298ZM144.858 31.44C143.982 31.44 143.507 31.2699 143.27 31.0913C143.086 30.9529 142.938 30.731 142.938 30.24H140.938C140.938 31.2156 141.277 32.0937 142.067 32.6887C142.803 33.2435 143.788 33.44 144.858 33.44V31.44ZM142.938 30.24C142.938 30.0428 142.997 29.6758 143.175 29.0912L141.262 28.5088C141.066 29.1509 140.938 29.7438 140.938 30.24H142.938ZM143.175 29.0912C143.379 28.4192 143.498 27.7834 143.498 27.2H141.498C141.498 27.5232 141.43 27.9542 141.262 28.5088L143.175 29.0912ZM143.498 27.2C143.498 26.5349 143.297 25.9159 142.867 25.3998L141.33 26.6802C141.433 26.8041 141.498 26.9584 141.498 27.2H143.498ZM142.891 25.4303C142.403 24.7965 141.7 24.52 140.938 24.52V26.52C141.19 26.52 141.26 26.5901 141.306 26.6497L142.891 25.4303ZM140.938 24.52C140.154 24.52 139.463 24.8208 138.911 25.3729L140.325 26.7871C140.52 26.5925 140.709 26.52 140.938 26.52V24.52ZM138.911 25.3729C138.467 25.8175 138.131 26.3419 138 26.9505L139.956 27.3695C139.986 27.2315 140.077 27.0358 140.325 26.7871L138.911 25.3729ZM138.017 26.8853L137.857 27.4453L139.78 27.9947L139.94 27.4347L138.017 26.8853ZM137.837 27.53C137.657 28.4593 137.578 29.9305 137.578 31.88H139.578C139.578 29.9362 139.66 28.634 139.8 27.91L137.837 27.53ZM137.578 31.88C137.578 33.8064 137.605 35.3445 137.659 36.4876L139.657 36.3924C139.605 35.2955 139.578 33.7936 139.578 31.88H137.578ZM137.659 36.4887C137.713 37.5805 137.767 38.3753 137.826 38.844L139.811 38.596C139.762 38.2114 139.711 37.4862 139.657 36.3913L137.659 36.4887ZM137.827 38.8522C137.853 39.049 137.872 39.2009 137.884 39.3104C137.891 39.3654 137.894 39.4055 137.897 39.433C137.9 39.467 137.898 39.4632 137.898 39.44H139.898C139.898 39.2763 139.858 38.9532 139.81 38.5878L137.827 38.8522ZM137.898 39.44C137.898 39.5796 137.856 39.8336 137.223 40.1398L138.094 41.9402C139.114 41.4464 139.898 40.6337 139.898 39.44H137.898ZM137.2 40.1514C136.497 40.5141 135.826 40.68 135.178 40.68V42.68C136.184 42.68 137.166 42.4192 138.117 41.9286L137.2 40.1514ZM135.178 40.68C135.004 40.68 134.872 40.6707 134.774 40.6571C134.674 40.6431 134.634 40.6276 134.635 40.6278C134.637 40.6287 134.657 40.637 134.686 40.6572C134.715 40.6779 134.757 40.7125 134.799 40.7653C134.894 40.8853 134.938 41.0313 134.938 41.16H132.938C132.938 41.462 133.034 41.7597 133.233 42.0097C133.42 42.2445 133.655 42.3856 133.862 42.4722C134.254 42.6369 134.725 42.68 135.178 42.68V40.68ZM134.926 41.3192L135.126 40.0792L133.151 39.7608L132.951 41.0008L134.926 41.3192ZM135.126 40.0789C135.511 37.6851 135.698 34.5995 135.698 30.84H133.698C133.698 34.5472 133.512 37.5149 133.151 39.7611L135.126 40.0789ZM135.698 30.84C135.698 27.117 135.568 24.4882 135.279 23.0439L133.318 23.4361C133.562 24.6584 133.698 27.0964 133.698 30.84H135.698ZM135.298 23.24C135.298 23.3098 135.282 23.419 135.215 23.5339C135.148 23.6484 135.062 23.7153 135.004 23.7482C134.953 23.7777 134.928 23.778 134.958 23.7723C134.986 23.767 135.043 23.76 135.138 23.76V21.76C134.796 21.76 134.377 21.8032 134.012 22.0118C133.564 22.2681 133.298 22.7177 133.298 23.24H135.298ZM135.138 23.76C136.337 23.76 136.86 24.146 137.119 24.6775L138.918 23.8025C138.216 22.3607 136.82 21.76 135.138 21.76V23.76ZM137.048 24.4825C137.075 24.592 137.133 24.7795 137.268 24.96C137.425 25.1686 137.719 25.4 138.138 25.4V23.4C138.504 23.4 138.752 23.6047 138.868 23.76C138.964 23.8872 138.988 23.9947 138.988 23.9975L137.048 24.4825ZM138.138 25.4C138.373 25.4 138.556 25.3223 138.629 25.2894C138.724 25.2466 138.81 25.1958 138.879 25.1512C139.019 25.0612 139.173 24.9438 139.332 24.814L138.065 23.266C138 23.3193 137.945 23.3628 137.898 23.3975C137.851 23.4327 137.818 23.4554 137.798 23.4688C137.787 23.4753 137.783 23.4779 137.783 23.4778C137.783 23.4777 137.785 23.4765 137.789 23.4745C137.793 23.4726 137.799 23.4694 137.808 23.4656C137.823 23.4587 137.856 23.4449 137.903 23.4317C137.927 23.4249 137.958 23.4173 137.996 23.4113C138.033 23.4052 138.082 23.4 138.138 23.4V25.4ZM139.332 24.814C140.022 24.2486 140.835 23.96 141.818 23.96V21.96C140.401 21.96 139.134 22.3914 138.065 23.266L139.332 24.814ZM141.818 23.96C142.431 23.96 143.054 24.0797 143.693 24.3308L144.424 22.4692C143.57 22.1336 142.699 21.96 141.818 21.96V23.96ZM143.684 24.3273C144.263 24.5608 144.652 24.8981 144.908 25.3305C145.173 25.7755 145.338 26.3924 145.338 27.24H147.338C147.338 26.1409 147.124 25.1445 146.628 24.3095C146.125 23.4619 145.374 22.8525 144.432 22.4726L143.684 24.3273ZM145.34 27.1744L145.14 30.2144L147.136 30.3456L147.336 27.3056L145.34 27.1744ZM147.557 25.4L146.56 25.3252L146.55 25.4529L146.573 25.5789L147.557 25.4ZM147.677 23.8L146.683 23.6896L146.681 23.7074L146.68 23.7252L147.677 23.8ZM149.637 23.44V24.44H150.688L150.636 23.3901L149.637 23.44ZM149.477 20.24H148.477V20.265L148.478 20.2899L149.477 20.24ZM150.877 18.32L150.363 17.4625L150.363 17.4625L150.877 18.32ZM153.797 17.84L154.786 17.9865L154.797 17.9137V17.84H153.797ZM153.477 23.4L152.478 23.3643L152.441 24.4H153.477V23.4ZM156.077 24.96L156.93 25.4814L156.937 25.4713L156.942 25.461L156.077 24.96ZM155.117 25.72V26.72H155.155L155.194 26.7171L155.117 25.72ZM153.437 25.72V24.72H152.466L152.437 25.6906L153.437 25.72ZM153.437 35.6L152.437 35.6192L152.437 35.6288L152.438 35.6384L153.437 35.6ZM153.597 38.76L152.6 38.8339L152.6 38.8367L153.597 38.76ZM153.757 40.44L152.765 40.564L152.769 40.5943L152.774 40.6243L153.757 40.44ZM153.917 41.36L152.927 41.5014L152.937 41.569L152.956 41.6347L153.917 41.36ZM153.477 42.16V43.16H153.515L153.554 43.1571L153.477 42.16ZM150.357 41.72L150.079 42.6806L150.086 42.6824L150.357 41.72ZM148.837 40.2L147.845 40.076L147.837 40.1377V40.2H148.837ZM149.677 25.76H150.677V24.76H149.677V25.76ZM148.037 25.84V26.84H148.108L148.178 26.8299L148.037 25.84ZM148.554 25.4748L148.674 23.8748L146.68 23.7252L146.56 25.3252L148.554 25.4748ZM148.671 23.9104C148.664 23.9699 148.643 24.0577 148.587 24.1523C148.53 24.2492 148.454 24.3223 148.378 24.3712C148.243 24.4579 148.156 24.44 148.237 24.44V22.44C147.971 22.44 147.618 22.4821 147.296 22.6888C146.925 22.9274 146.726 23.3003 146.683 23.6896L148.671 23.9104ZM148.237 24.44H149.637V22.44H148.237V24.44ZM150.636 23.3901L150.476 20.1901L148.478 20.2899L148.638 23.4899L150.636 23.3901ZM150.477 20.24V20.08H148.477V20.24H150.477ZM150.477 20.08C150.477 20.024 150.526 19.6969 151.392 19.1775L150.363 17.4625C149.362 18.0631 148.477 18.9094 148.477 20.08H150.477ZM151.392 19.1775C152.23 18.6746 152.904 18.48 153.437 18.48V16.48C152.423 16.48 151.391 16.8454 150.363 17.4625L151.392 19.1775ZM153.437 18.48C153.43 18.48 153.238 18.481 153.043 18.3074C152.825 18.1139 152.797 17.88 152.797 17.8H154.797C154.797 17.5067 154.709 17.1128 154.371 16.8126C154.056 16.5323 153.684 16.48 153.437 16.48V18.48ZM152.797 17.8V17.84H154.797V17.8H152.797ZM152.808 17.6934C152.691 18.4813 152.584 20.3995 152.478 23.3643L154.476 23.4357C154.584 20.4272 154.69 18.6387 154.786 17.9865L152.808 17.6934ZM153.477 24.4C154.625 24.4 155.463 24.3762 155.881 24.3064L155.553 22.3336C155.331 22.3705 154.676 22.4 153.477 22.4V24.4ZM155.881 24.3064C156.04 24.2799 156.159 24.2607 156.239 24.2484C156.28 24.2421 156.306 24.2383 156.322 24.2362C156.33 24.2352 156.33 24.2352 156.325 24.2358C156.322 24.236 156.315 24.2368 156.304 24.2376C156.297 24.2381 156.271 24.24 156.237 24.24V22.24C156.15 22.24 156.06 22.2534 156.057 22.2538C156.023 22.2584 155.981 22.2646 155.935 22.2716C155.842 22.2859 155.714 22.3067 155.553 22.3336L155.881 24.3064ZM156.237 24.24C156.137 24.24 156.002 24.2174 155.863 24.1382C155.725 24.0589 155.635 23.9526 155.583 23.8639C155.497 23.7166 155.517 23.6245 155.517 23.72H157.517C157.517 23.4955 157.49 23.1634 157.311 22.8561C157.083 22.466 156.683 22.24 156.237 22.24V24.24ZM155.517 23.72C155.517 23.7715 155.479 23.997 155.212 24.459L156.942 25.461C157.262 24.9096 157.517 24.3085 157.517 23.72H155.517ZM155.224 24.4385C155.117 24.6133 155.036 24.6943 154.996 24.726C154.965 24.751 154.983 24.7274 155.04 24.7229L155.194 26.7171C156.019 26.6536 156.574 26.0643 156.93 25.4814L155.224 24.4385ZM155.117 24.72H153.437V26.72H155.117V24.72ZM152.437 25.6906C152.41 26.6134 152.397 28.1598 152.397 30.32H154.397C154.397 28.1602 154.41 26.6399 154.437 25.7494L152.437 25.6906ZM152.397 30.32C152.397 32.4567 152.41 34.2237 152.437 35.6192L154.437 35.5808C154.41 34.2029 154.397 32.4499 154.397 30.32H152.397ZM152.438 35.6384C152.491 37.0283 152.545 38.0958 152.6 38.8339L154.594 38.6861C154.542 37.9842 154.49 36.9451 154.436 35.5616L152.438 35.6384ZM152.6 38.8367C152.654 39.5375 152.709 40.1151 152.765 40.564L154.749 40.316C154.699 39.9116 154.647 39.3692 154.594 38.6833L152.6 38.8367ZM152.774 40.6243C152.854 41.0502 152.904 41.3382 152.927 41.5014L154.907 41.2186C154.877 41.0085 154.82 40.6832 154.74 40.2557L152.774 40.6243ZM152.956 41.6347C152.979 41.7185 152.994 41.7741 153.001 41.8069C153.004 41.8232 153.005 41.8263 153.004 41.8196C153.003 41.8158 153.002 41.8061 153 41.7917C152.999 41.7782 152.997 41.7531 152.997 41.72H154.997C154.997 41.5737 154.967 41.4364 154.953 41.3731C154.934 41.2859 154.908 41.1882 154.879 41.0853L152.956 41.6347ZM152.997 41.72C152.997 41.6786 153.004 41.6025 153.042 41.5108C153.083 41.4149 153.146 41.3305 153.221 41.2666C153.36 41.1493 153.469 41.1577 153.4 41.1629L153.554 43.1571C153.832 43.1356 154.201 43.0574 154.513 42.7934C154.864 42.4962 154.997 42.0906 154.997 41.72H152.997ZM153.477 41.16C152.532 41.16 151.584 41.0269 150.628 40.7576L150.086 42.6824C151.21 42.9997 152.342 43.16 153.477 43.16V41.16ZM150.635 40.7594C150.219 40.6391 150.015 40.5037 149.924 40.4129C149.859 40.3481 149.837 40.2962 149.837 40.2H147.837C147.837 40.8238 148.068 41.3852 148.51 41.8271C148.926 42.243 149.481 42.5076 150.079 42.6806L150.635 40.7594ZM149.829 40.324C150.395 35.7977 150.677 30.9425 150.677 25.76H148.677C148.677 30.8708 148.399 35.6423 147.845 40.076L149.829 40.324ZM149.677 24.76C148.944 24.76 148.341 24.7865 147.896 24.8501L148.178 26.8299C148.48 26.7868 148.97 26.76 149.677 26.76V24.76ZM148.037 24.84H147.997V26.84H148.037V24.84ZM147.997 24.84C148.039 24.84 148.108 24.8465 148.189 24.8775C148.274 24.9095 148.351 24.9598 148.414 25.0229C148.535 25.1437 148.546 25.2515 148.541 25.2211L146.573 25.5789C146.621 25.8419 146.732 26.1696 147 26.4371C147.29 26.7276 147.657 26.84 147.997 26.84V24.84ZM160.512 30.84H159.512V30.86L159.513 30.88L160.512 30.84ZM160.552 31.84H161.552V31.82L161.551 31.8L160.552 31.84ZM160.872 32.08V33.08H160.918L160.965 33.0756L160.872 32.08ZM163.112 31.44L163.588 32.3193L163.602 32.3118L163.616 32.3038L163.112 31.44ZM164.552 30.2L165.369 30.7767L165.38 30.7607L165.391 30.7442L164.552 30.2ZM165.592 27.64L164.595 27.5569L164.594 27.5661L165.592 27.64ZM165.632 27.16L166.628 27.243L166.632 27.2016V27.16H165.632ZM161.832 26.12L162.632 26.72L162.639 26.7107L162.645 26.7012L161.832 26.12ZM168.592 38.84L167.716 38.3569L167.71 38.3678L168.592 38.84ZM167.192 40.52L167.756 41.3454L167.765 41.3392L167.192 40.52ZM165.392 41.36L165.682 42.317L165.686 42.3158L165.392 41.36ZM157.912 39.24L158.756 38.704L158.756 38.704L157.912 39.24ZM158.272 25.88L157.436 25.3304L157.431 25.3381L158.272 25.88ZM169.112 25.36L168.22 25.8129L168.226 25.8247L168.232 25.8363L169.112 25.36ZM169.552 28.56L170.538 28.7244L170.54 28.7121L169.552 28.56ZM167.712 31.84L167.005 31.1329L167.005 31.1329L167.712 31.84ZM165.192 33.36L164.806 32.4376L164.806 32.4376L165.192 33.36ZM161.152 34.32V35.32H161.203L161.255 35.3147L161.152 34.32ZM161.072 35.68L160.123 35.9962L160.134 36.0289L160.147 36.0607L161.072 35.68ZM161.672 36.84L160.84 37.3947L160.861 37.4272L160.885 37.4578L161.672 36.84ZM167.192 36.84L167.874 37.5711L167.876 37.5695L167.192 36.84ZM168.232 35.36L167.337 34.9128L167.329 34.9293L167.321 34.9462L168.232 35.36ZM169.072 35.48L170.012 35.1383L170.012 35.1383L169.072 35.48ZM159.513 30.88L159.553 31.88L161.551 31.8L161.511 30.8L159.513 30.88ZM159.552 31.84C159.552 32.164 159.675 32.5524 160.032 32.82C160.334 33.047 160.669 33.08 160.872 33.08V31.08C160.878 31.08 160.916 31.0802 160.974 31.0949C161.034 31.1098 161.13 31.1435 161.232 31.22C161.339 31.3007 161.428 31.4105 161.486 31.5389C161.54 31.6615 161.552 31.77 161.552 31.84H159.552ZM160.965 33.0756C161.929 32.9853 162.81 32.7405 163.588 32.3193L162.635 30.5607C162.133 30.8328 161.521 31.0147 160.778 31.0844L160.965 33.0756ZM163.616 32.3038C164.34 31.8813 164.943 31.3793 165.369 30.7767L163.735 29.6233C163.52 29.9274 163.164 30.2521 162.608 30.5762L163.616 32.3038ZM165.391 30.7442C166.071 29.6956 166.518 28.6754 166.589 27.7139L164.594 27.5661C164.559 28.0446 164.313 28.7311 163.713 29.6558L165.391 30.7442ZM166.588 27.723L166.628 27.243L164.635 27.077L164.595 27.557L166.588 27.723ZM166.632 27.16C166.632 26.334 166.472 25.5295 165.984 24.9171C165.462 24.2611 164.707 24 163.912 24V26C164.263 26 164.368 26.0989 164.419 26.1629C164.505 26.2705 164.632 26.546 164.632 27.16H166.632ZM163.912 24C162.708 24 161.722 24.5525 161.018 25.5388L162.645 26.7012C163.008 26.1942 163.409 26 163.912 26V24ZM161.032 25.52C159.984 26.9175 159.512 28.7243 159.512 30.84H161.512C161.512 29.009 161.92 27.6692 162.632 26.72L161.032 25.52ZM168.232 36.16C168.232 37.0295 168.05 37.7521 167.716 38.3569L169.467 39.3231C169.987 38.3812 170.232 37.3171 170.232 36.16H168.232ZM167.71 38.3678C167.363 39.0164 166.99 39.4403 166.618 39.7008L167.765 41.3392C168.46 40.8531 169.021 40.1569 169.473 39.3122L167.71 38.3678ZM166.627 39.6947C166.217 39.9753 165.712 40.2153 165.098 40.4042L165.686 42.3158C166.458 42.0781 167.153 41.7581 167.756 41.3453L166.627 39.6947ZM165.102 40.403C164.302 40.6453 163.56 40.76 162.872 40.76V42.76C163.783 42.76 164.721 42.608 165.682 42.317L165.102 40.403ZM162.872 40.76C160.923 40.76 159.613 40.0546 158.756 38.704L157.068 39.776C158.343 41.7854 160.34 42.76 162.872 42.76V40.76ZM158.756 38.704C157.817 37.2257 157.312 35.2928 157.312 32.84H155.312C155.312 35.5605 155.873 37.8943 157.068 39.776L158.756 38.704ZM157.312 32.84C157.312 30.4021 157.918 28.2735 159.112 26.4219L157.431 25.3381C156.012 27.5399 155.312 30.0512 155.312 32.84H157.312ZM159.107 26.4296C160.237 24.7123 161.893 23.84 164.232 23.84V21.84C161.29 21.84 158.973 22.9944 157.436 25.3304L159.107 26.4296ZM164.232 23.84C166.377 23.84 167.586 24.5651 168.22 25.8129L170.003 24.9071C168.93 22.7949 166.886 21.84 164.232 21.84V23.84ZM168.232 25.8363C168.519 26.3647 168.632 26.8151 168.632 27.2H170.632C170.632 26.4116 170.398 25.6353 169.991 24.8837L168.232 25.8363ZM168.632 27.2C168.632 27.7353 168.606 28.1321 168.563 28.4079L170.54 28.7121C170.604 28.2945 170.632 27.7847 170.632 27.2H168.632ZM168.565 28.3956C168.537 28.5634 168.408 28.9453 168.09 29.6073L169.893 30.4727C170.215 29.8014 170.459 29.1966 170.538 28.7244L168.565 28.3956ZM168.09 29.6073C167.82 30.1701 167.46 30.6778 167.005 31.1329L168.419 32.5471C169.03 31.9356 169.523 31.2432 169.893 30.4727L168.09 29.6073ZM167.005 31.1329C166.604 31.5336 165.9 31.9794 164.806 32.4376L165.578 34.2824C166.777 33.7806 167.753 33.213 168.419 32.5471L167.005 31.1329ZM164.806 32.4376C163.769 32.8716 162.521 33.173 161.049 33.3253L161.255 35.3147C162.875 35.147 164.321 34.8084 165.578 34.2824L164.806 32.4376ZM161.152 33.32C160.921 33.32 160.562 33.3675 160.253 33.6374C159.919 33.9296 159.832 34.3152 159.832 34.6H161.832C161.832 34.6981 161.798 34.9437 161.57 35.1426C161.368 35.3191 161.169 35.32 161.152 35.32V33.32ZM159.832 34.6C159.832 35.0116 159.958 35.5015 160.123 35.9962L162.02 35.3638C161.865 34.8985 161.832 34.6684 161.832 34.6H159.832ZM160.147 36.0607C160.352 36.5593 160.581 37.0074 160.84 37.3947L162.504 36.2853C162.335 36.0326 162.164 35.7074 161.996 35.2993L160.147 36.0607ZM160.885 37.4578C161.702 38.4965 162.889 38.96 164.272 38.96V36.96C163.361 36.96 162.815 36.6768 162.458 36.2222L160.885 37.4578ZM164.272 38.96C165.658 38.96 166.879 38.4994 167.874 37.5711L166.509 36.1089C165.904 36.6739 165.178 36.96 164.272 36.96V38.96ZM167.876 37.5695C168.407 37.0714 168.827 36.4673 169.142 35.7738L167.321 34.9462C167.103 35.426 166.83 35.8086 166.508 36.1105L167.876 37.5695ZM169.126 35.8072C169.139 35.7819 169.118 35.8354 169.036 35.9009C168.939 35.9792 168.795 36.04 168.632 36.04V34.04C167.922 34.04 167.52 34.5468 167.337 34.9128L169.126 35.8072ZM168.632 36.04C168.543 36.04 168.45 36.0218 168.361 35.9828C168.275 35.9448 168.214 35.896 168.175 35.8571C168.106 35.7883 168.106 35.7493 168.132 35.8217L170.012 35.1383C169.87 34.7483 169.486 34.04 168.632 34.04V36.04ZM168.132 35.8217C168.176 35.9431 168.203 36.0342 168.218 36.099C168.235 36.168 168.232 36.1833 168.232 36.16H170.232C170.232 35.8191 170.128 35.4574 170.012 35.1383L168.132 35.8217ZM180.718 23.24L180.382 24.1817L180.421 24.1956L180.461 24.2062L180.718 23.24ZM181.358 23.4V24.4H181.72L181.998 24.1682L181.358 23.4ZM181.598 23.2L182.238 23.9682L182.616 23.6539L182.598 23.1633L181.598 23.2ZM181.438 18.84L182.438 18.8033L182.437 18.786L182.436 18.7688L181.438 18.84ZM180.238 15.88L180.838 15.08L180.784 15.039L180.724 15.0058L180.238 15.88ZM179.878 15.68L179.324 16.512L179.357 16.5345L179.393 16.5542L179.878 15.68ZM181.478 13.92L181.087 12.9998L181.08 13.0029L181.478 13.92ZM185.518 13.56L186.508 13.4145L186.505 13.3978L186.502 13.3811L185.518 13.56ZM185.518 26.24L184.52 26.1857L184.519 26.1966L185.518 26.24ZM185.958 40.44L185.064 40.8872L185.076 40.912L185.09 40.9361L185.958 40.44ZM181.118 40H182.118V39.9377L182.111 39.876L181.118 40ZM181.278 33.04L180.281 32.9641L180.28 32.9742L181.278 33.04ZM178.678 37.16L179.029 38.0963L179.057 38.0859L179.084 38.0738L178.678 37.16ZM179.598 37.4L178.67 37.7714L178.685 37.81L178.704 37.8472L179.598 37.4ZM178.718 40.52L179.367 41.2812L179.375 41.2744L179.383 41.2674L178.718 40.52ZM172.438 39.36L171.568 39.8526L171.574 39.8624L171.579 39.8721L172.438 39.36ZM173.118 26.76L172.25 26.2638L172.243 26.2761L173.118 26.76ZM175.718 24.08L176.239 24.9338L176.246 24.9292L176.254 24.9245L175.718 24.08ZM179.438 24.04C179.827 24.04 180.137 24.0941 180.382 24.1817L181.055 22.2983C180.553 22.1192 180.009 22.04 179.438 22.04V24.04ZM180.461 24.2062C180.662 24.26 180.821 24.3016 180.936 24.3301C180.992 24.3442 181.044 24.3567 181.086 24.3662C181.107 24.3708 181.133 24.3764 181.161 24.3814C181.174 24.3838 181.195 24.3874 181.219 24.3906C181.235 24.3927 181.289 24.4 181.358 24.4V22.4C181.424 22.4 181.474 22.4069 181.483 22.4081C181.501 22.4105 181.514 22.4128 181.518 22.4136C181.527 22.4153 181.53 22.4159 181.52 22.4138C181.503 22.41 181.471 22.4024 181.421 22.3899C181.322 22.3651 181.174 22.3267 180.976 22.2738L180.461 24.2062ZM181.998 24.1682L182.238 23.9682L180.958 22.4318L180.718 22.6318L181.998 24.1682ZM182.598 23.1633L182.438 18.8033L180.439 18.8767L180.599 23.2367L182.598 23.1633ZM182.436 18.7688C182.375 17.9234 182.191 17.1493 181.853 16.4728L180.064 17.3672C180.259 17.7574 180.395 18.2632 180.441 18.9112L182.436 18.7688ZM181.853 16.4728C181.582 15.9316 181.255 15.3929 180.838 15.08L179.638 16.68C179.624 16.6692 179.666 16.6991 179.756 16.8292C179.841 16.9514 179.944 17.127 180.064 17.3672L181.853 16.4728ZM180.724 15.0058L180.364 14.8058L179.393 16.5542L179.753 16.7542L180.724 15.0058ZM180.433 14.8479C180.433 14.8479 180.433 14.848 180.433 14.848C180.433 14.8481 180.433 14.8481 180.433 14.8482C180.434 14.8484 180.434 14.8488 180.435 14.8492C180.436 14.85 180.438 14.8513 180.44 14.8531C180.444 14.8566 180.451 14.8623 180.46 14.8705C180.477 14.8866 180.503 14.9143 180.53 14.9553C180.59 15.0455 180.638 15.173 180.638 15.32H178.638C178.638 15.9204 179.018 16.3081 179.324 16.512L180.433 14.8479ZM180.638 15.32C180.638 15.485 180.574 15.5792 180.57 15.5852C180.567 15.5881 180.598 15.5461 180.704 15.4658C180.917 15.3039 181.292 15.0915 181.877 14.8371L181.08 13.0029C180.438 13.2819 179.893 13.5694 179.493 13.8742C179.15 14.1349 178.638 14.6132 178.638 15.32H180.638ZM181.87 14.8402C183.096 14.3185 183.915 14.12 184.398 14.12V12.12C183.495 12.12 182.368 12.4548 181.087 12.9998L181.87 14.8402ZM184.398 14.12C184.538 14.12 184.645 14.1275 184.722 14.1382C184.802 14.1491 184.833 14.161 184.833 14.1608C184.832 14.1607 184.772 14.1375 184.7 14.0636C184.62 13.9806 184.558 13.8662 184.534 13.7389L186.502 13.3811C186.393 12.7799 185.948 12.4502 185.564 12.2992C185.206 12.1584 184.792 12.12 184.398 12.12V14.12ZM184.529 13.7055C184.65 14.5291 184.718 16.1916 184.718 18.76H186.718C186.718 16.2084 186.653 14.4043 186.508 13.4145L184.529 13.7055ZM184.718 18.76C184.718 21.2758 184.652 23.751 184.52 26.1857L186.517 26.2943C186.651 23.8223 186.718 21.3109 186.718 18.76H184.718ZM184.519 26.1966C184.412 28.6676 184.358 31.4692 184.358 34.6H186.358C186.358 31.4908 186.411 28.7191 186.517 26.2834L184.519 26.1966ZM184.358 34.6C184.358 36.1637 184.409 37.4613 184.514 38.4822C184.615 39.4671 184.776 40.3122 185.064 40.8872L186.853 39.9928C186.74 39.7678 186.602 39.2396 186.503 38.2778C186.408 37.352 186.358 36.1297 186.358 34.6H184.358ZM185.09 40.9361C185.113 40.977 185.121 40.9993 185.123 41.0041C185.124 41.008 185.118 40.992 185.118 40.96H187.118C187.118 40.5762 186.991 40.2316 186.827 39.9439L185.09 40.9361ZM185.118 40.96C185.118 40.7922 185.189 40.635 185.288 40.5316C185.364 40.4516 185.417 40.4456 185.359 40.4658C185.234 40.5092 184.941 40.56 184.398 40.56V42.56C185.003 42.56 185.569 42.5108 186.018 42.3542C186.46 42.2 187.118 41.7976 187.118 40.96H185.118ZM184.398 40.56C183.352 40.56 182.712 40.4306 182.368 40.2669C182.209 40.1914 182.156 40.1287 182.142 40.1086C182.134 40.0973 182.118 40.0744 182.118 40H180.118C180.118 40.4456 180.239 40.8777 180.504 41.2564C180.764 41.6263 181.121 41.8886 181.509 42.0731C182.258 42.4294 183.257 42.56 184.398 42.56V40.56ZM182.111 39.876C182.065 39.5139 182.038 38.912 182.038 38.04H180.038C180.038 38.928 180.065 39.6327 180.126 40.124L182.111 39.876ZM182.038 38.04C182.038 37.1708 182.116 35.5352 182.276 33.1058L180.28 32.9742C180.121 35.3982 180.038 37.0959 180.038 38.04H182.038ZM182.275 33.1159C182.463 30.6551 182.558 28.7451 182.558 27.4H180.558C180.558 28.6682 180.467 30.5182 180.281 32.9641L182.275 33.1159ZM182.558 27.4C182.558 26.5792 182.352 25.7799 181.765 25.1929C181.178 24.6059 180.379 24.4 179.558 24.4V26.4C180.071 26.4 180.272 26.5275 180.351 26.6071C180.431 26.6868 180.558 26.8875 180.558 27.4H182.558ZM179.558 24.4C178.692 24.4 177.898 24.662 177.217 25.1889C176.55 25.7047 176.038 26.4365 175.646 27.3109L177.471 28.1291C177.772 27.4568 178.107 27.0286 178.44 26.7711C178.759 26.5247 179.118 26.4 179.558 26.4V24.4ZM175.646 27.3109C174.9 28.9738 174.518 30.6593 174.518 32.36H176.518C176.518 30.9674 176.83 29.5595 177.471 28.1291L175.646 27.3109ZM174.518 32.36C174.518 34.0517 174.726 35.4701 175.245 36.5001C175.512 37.0294 175.876 37.4854 176.362 37.8066C176.853 38.1317 177.412 38.28 177.998 38.28V36.28C177.758 36.28 177.593 36.2233 177.465 36.1384C177.331 36.0496 177.178 35.8906 177.031 35.5999C176.724 34.9899 176.518 33.9483 176.518 32.36H174.518ZM177.998 38.28C178.352 38.28 178.698 38.2206 179.029 38.0963L178.327 36.2237C178.232 36.2594 178.125 36.28 177.998 36.28V38.28ZM179.084 38.0738C179.138 38.0498 179.184 38.03 179.223 38.014C179.262 37.9978 179.291 37.9868 179.31 37.9798C179.319 37.9764 179.325 37.9745 179.327 37.9737C179.33 37.9729 179.327 37.974 179.318 37.9762C179.311 37.9782 179.292 37.983 179.265 37.9877C179.251 37.9901 179.232 37.993 179.209 37.9954C179.187 37.9977 179.156 38 179.118 38V36C178.971 36 178.849 36.0315 178.803 36.0438C178.739 36.0608 178.678 36.0813 178.627 36.1002C178.522 36.1383 178.401 36.1889 178.272 36.2462L179.084 38.0738ZM179.118 38C179.066 38 179.001 37.9915 178.932 37.9667C178.862 37.9419 178.804 37.9063 178.758 37.8682C178.671 37.796 178.656 37.7367 178.67 37.7714L180.527 37.0286C180.434 36.7966 180.285 36.5374 180.038 36.3318C179.774 36.1114 179.453 36 179.118 36V38ZM178.704 37.8472C178.776 37.9916 178.798 38.1061 178.798 38.2H180.798C180.798 37.7606 180.687 37.3417 180.493 36.9528L178.704 37.8472ZM178.798 38.2C178.798 38.8014 178.576 39.3089 178.054 39.7726L179.383 41.2674C180.301 40.4511 180.798 39.4119 180.798 38.2H178.798ZM178.07 39.7588C177.549 40.2023 176.906 40.44 176.078 40.44V42.44C177.331 42.44 178.447 42.0644 179.367 41.2812L178.07 39.7588ZM176.078 40.44C174.834 40.44 173.946 39.9354 173.297 38.8479L171.579 39.8721C172.584 41.558 174.122 42.44 176.078 42.44V40.44ZM173.309 38.8674C172.614 37.6408 172.238 36.0748 172.238 34.12H170.238C170.238 36.3252 170.662 38.2525 171.568 39.8526L173.309 38.8674ZM172.238 34.12C172.238 31.6459 172.824 29.3595 173.993 27.2439L172.243 26.2761C170.906 28.6939 170.238 31.3141 170.238 34.12H172.238ZM173.987 27.2561C174.543 26.2817 175.291 25.5118 176.239 24.9338L175.198 23.2262C173.959 23.9815 172.973 24.9983 172.25 26.2639L173.987 27.2561ZM176.254 24.9245C177.176 24.34 178.227 24.04 179.438 24.04V22.04C177.876 22.04 176.448 22.4333 175.183 23.2355L176.254 24.9245Z" fill="#F9F9F9"/>
</svg>
